<svg width="554" height="633" viewBox="0 0 554 633" fill="none" xmlns="http://www.w3.org/2000/svg">
<rect x="260.125" y="427.125" width="292.75" height="204.75" rx="8.875" fill="#E2FAF3" stroke="#7FDFBF" stroke-width="2.25"/>
<rect x="67.875" y="197.875" width="400.25" height="248.25" rx="11.125" fill="#FDF0F6" stroke="#E92579" stroke-width="2.25"/>
<path d="M112.773 237.153L110.719 230.783H108.86L106.819 237.127L105.129 230.783H103.231L105.792 240H107.664L109.77 233.435L111.876 240H113.722L116.27 230.783H114.437L112.773 237.153ZM123.516 240V238.31H119.538V236.178H123.139V234.579H119.538V232.473H123.516V230.783H117.744V240H123.516ZM127.364 238.336V232.447H128.807C130.315 232.447 131.563 233.396 131.563 235.398C131.563 237.4 130.302 238.336 128.794 238.336H127.364ZM128.859 240C131.485 240 133.422 238.31 133.422 235.398C133.422 232.486 131.498 230.783 128.872 230.783H125.57V240H128.859Z" fill="#C9ACB9"/>
<path d="M114.487 276V261.744H112.199C111.891 263.24 110.483 264.384 108.437 264.428V266.232H111.891V276H114.487ZM127.066 261.744H116.418V264.054H124.074C124.074 264.054 119.102 268.036 118.486 276H121.214C121.852 268.652 125.878 265.044 127.066 264.054V261.744Z" fill="#C9ACB9"/>
<path d="M187.185 232.486V230.783H179.554V232.486H182.466V240H184.273V232.486H187.185ZM196.326 240V230.783H194.519V234.488H190.502V230.783H188.708V240H190.502V236.178H194.519V240H196.326ZM202.138 240.208C204.114 240.208 205.687 238.999 205.687 236.737V230.783H203.893V236.607C203.893 237.816 203.23 238.453 202.138 238.453C201.072 238.453 200.396 237.816 200.396 236.607V230.783H198.602V236.737C198.602 238.999 200.175 240.208 202.138 240.208Z" fill="#E92579"/>
<circle cx="193" cy="269" r="20" fill="#E92579"/>
<path d="M189.257 276V261.744H186.969C186.661 263.24 185.253 264.384 183.207 264.428V266.232H186.661V276H189.257ZM197.174 267.684C195.766 267.662 194.842 266.782 194.842 265.594C194.842 264.516 195.722 263.57 197.174 263.57C198.626 263.57 199.528 264.516 199.528 265.594C199.528 266.782 198.604 267.662 197.174 267.684ZM197.174 274.108C195.458 274.108 194.512 273.096 194.512 271.93C194.512 270.764 195.458 269.73 197.174 269.73C198.912 269.73 199.858 270.764 199.858 271.93C199.858 273.096 198.912 274.108 197.174 274.108ZM197.174 276.33C200.452 276.33 202.476 274.57 202.476 272.194C202.476 270.566 201.332 269.224 199.836 268.696C201.2 268.19 202.146 266.826 202.146 265.44C202.146 263.064 200.034 261.414 197.174 261.414C194.314 261.414 192.224 263.064 192.224 265.44C192.224 266.848 193.17 268.19 194.534 268.696C193.016 269.224 191.894 270.566 191.894 272.194C191.894 274.57 193.918 276.33 197.174 276.33Z" fill="white"/>
<path d="M260.926 240V236.412H264.501V234.761H260.913V232.486H264.943V230.783H259.119V240H260.926ZM271.229 240H273.231L271.255 236.23C272.464 235.879 273.218 234.904 273.218 233.617C273.218 232.018 272.074 230.783 270.28 230.783H266.679V240H268.486V236.451H269.422L271.229 240ZM268.486 234.904V232.343H269.942C270.852 232.343 271.385 232.85 271.385 233.63C271.385 234.384 270.852 234.904 269.942 234.904H268.486ZM276.884 240V230.783H275.064V240H276.884Z" fill="#C9ACB9"/>
<path d="M263.606 276V261.744H261.318C261.01 263.24 259.602 264.384 257.556 264.428V266.232H261.01V276H263.606ZM266.465 275.516C267.191 276 268.599 276.33 269.765 276.33C274.605 276.33 277.069 273.25 277.069 268.08C277.069 263.526 274.407 261.414 271.437 261.414C268.445 261.414 266.069 263.438 266.069 266.386C266.069 269.422 268.423 271.182 270.997 271.182C272.691 271.182 273.945 270.456 274.473 269.532C274.341 272.216 272.735 274.02 269.743 274.02C268.797 274.02 267.741 273.712 267.191 273.36L266.465 275.516ZM274.121 266.298C274.121 267.926 272.823 268.96 271.393 268.96C269.919 268.96 268.665 267.97 268.665 266.298C268.665 264.692 269.941 263.658 271.393 263.658C272.823 263.658 274.121 264.714 274.121 266.298Z" fill="#C9ACB9"/>
<path d="M338.37 232.98C338.162 231.94 337.304 230.588 335.068 230.588C333.326 230.588 331.857 231.836 331.857 233.474C331.857 234.865 332.806 235.814 334.275 236.113L335.562 236.373C336.277 236.516 336.68 236.932 336.68 237.465C336.68 238.115 336.147 238.596 335.185 238.596C333.885 238.596 333.248 237.777 333.17 236.867L331.506 237.309C331.649 238.622 332.728 240.195 335.172 240.195C337.317 240.195 338.5 238.765 338.5 237.348C338.5 236.048 337.603 234.956 335.926 234.631L334.639 234.384C333.963 234.254 333.638 233.851 333.638 233.344C333.638 232.733 334.21 232.174 335.081 232.174C336.251 232.174 336.667 232.967 336.758 233.474L338.37 232.98ZM346.35 240H348.3L344.79 230.783H342.71L339.174 240H341.072L341.839 237.894H345.583L346.35 240ZM343.711 232.772L344.985 236.256H342.437L343.711 232.772ZM355.674 232.486V230.783H348.043V232.486H350.955V240H352.762V232.486H355.674Z" fill="#C9ACB9"/>
<path d="M333.257 267.09C333.235 266.848 333.191 266.584 333.191 266.364C333.191 264.89 334.005 263.724 335.677 263.724C337.283 263.724 338.075 264.78 338.075 265.946C338.075 266.98 337.525 267.838 336.249 268.63L333.895 270.104C331.409 271.644 330.551 273.558 330.507 276H340.825V273.668H333.763C333.961 272.964 334.533 272.458 335.215 272.04L337.987 270.324C339.703 269.268 340.737 267.75 340.737 265.902C340.737 263.46 338.867 261.414 335.721 261.414C332.487 261.414 330.639 263.636 330.639 266.1C330.639 266.386 330.683 266.716 330.705 266.914L333.257 267.09ZM345.206 268.872C345.206 267.068 345.514 265.682 346.218 264.802C346.702 264.164 347.384 263.746 348.418 263.746C349.452 263.746 350.112 264.164 350.618 264.802C351.3 265.682 351.608 267.068 351.608 268.872C351.608 270.676 351.3 272.062 350.618 272.942C350.112 273.58 349.452 273.998 348.418 273.998C347.384 273.998 346.702 273.58 346.218 272.942C345.536 272.062 345.206 270.676 345.206 268.872ZM342.588 268.872C342.588 270.764 342.896 272.546 343.864 273.998C344.788 275.384 346.284 276.33 348.418 276.33C350.552 276.33 352.026 275.384 352.95 273.998C353.918 272.546 354.226 270.764 354.226 268.872C354.226 266.98 353.918 265.198 352.95 263.746C352.026 262.36 350.552 261.414 348.418 261.414C346.284 261.414 344.788 262.36 343.864 263.746C342.896 265.198 342.588 266.98 342.588 268.872Z" fill="#C9ACB9"/>
<path d="M411.594 232.98C411.386 231.94 410.528 230.588 408.292 230.588C406.55 230.588 405.081 231.836 405.081 233.474C405.081 234.865 406.03 235.814 407.499 236.113L408.786 236.373C409.501 236.516 409.904 236.932 409.904 237.465C409.904 238.115 409.371 238.596 408.409 238.596C407.109 238.596 406.472 237.777 406.394 236.867L404.73 237.309C404.873 238.622 405.952 240.195 408.396 240.195C410.541 240.195 411.724 238.765 411.724 237.348C411.724 236.048 410.827 234.956 409.15 234.631L407.863 234.384C407.187 234.254 406.862 233.851 406.862 233.344C406.862 232.733 407.434 232.174 408.305 232.174C409.475 232.174 409.891 232.967 409.982 233.474L411.594 232.98ZM416.918 240.208C418.894 240.208 420.467 238.999 420.467 236.737V230.783H418.673V236.607C418.673 237.816 418.01 238.453 416.918 238.453C415.852 238.453 415.176 237.816 415.176 236.607V230.783H413.382V236.737C413.382 238.999 414.955 240.208 416.918 240.208ZM430.612 240V230.783H428.818V236.88L424.983 230.783H422.747V240H424.541V233.461L428.727 240H430.612Z" fill="#C9ACB9"/>
<path d="M411.378 267.09C411.356 266.848 411.312 266.584 411.312 266.364C411.312 264.89 412.126 263.724 413.798 263.724C415.404 263.724 416.196 264.78 416.196 265.946C416.196 266.98 415.646 267.838 414.37 268.63L412.016 270.104C409.53 271.644 408.672 273.558 408.628 276H418.946V273.668H411.884C412.082 272.964 412.654 272.458 413.336 272.04L416.108 270.324C417.824 269.268 418.858 267.75 418.858 265.902C418.858 263.46 416.988 261.414 413.842 261.414C410.608 261.414 408.76 263.636 408.76 266.1C408.76 266.386 408.804 266.716 408.826 266.914L411.378 267.09ZM426.492 276V261.744H424.204C423.896 263.24 422.488 264.384 420.442 264.428V266.232H423.896V276H426.492Z" fill="#C9ACB9"/>
<rect x="1.875" y="1.875" width="184.035" height="216.25" rx="11.125" fill="#EEF2FC" stroke="#6267F6" stroke-width="2.25"/>
<rect x="17.8065" y="167.376" width="153.323" height="34.8172" rx="3.60215" fill="white" stroke="#A8B5D3" stroke-width="2"/>
<path d="M55.5968 190.855H57.4262L52.5594 178.619H50.6092L45.7425 190.855H47.5546L48.8489 187.438H54.268L55.5968 190.855ZM51.5412 180.379L53.6639 185.867H49.453L51.5412 180.379ZM62.3016 183.796C63.7167 183.796 64.3208 184.746 64.5279 185.557L65.9948 184.935C65.6496 183.676 64.5106 182.295 62.3016 182.295C59.9372 182.295 58.1251 184.107 58.1251 186.696C58.1251 189.215 59.9027 191.114 62.3188 191.114C64.4761 191.114 65.6669 189.716 66.0638 188.525L64.6314 187.904C64.4416 188.56 63.8721 189.612 62.3188 189.612C60.9727 189.612 59.7819 188.594 59.7819 186.696C59.7819 184.763 60.99 183.796 62.3016 183.796ZM71.3688 183.796C72.784 183.796 73.388 184.746 73.5951 185.557L75.062 184.935C74.7169 183.676 73.5778 182.295 71.3688 182.295C69.0045 182.295 67.1924 184.107 67.1924 186.696C67.1924 189.215 68.9699 191.114 71.3861 191.114C73.5433 191.114 74.7341 189.716 75.1311 188.525L73.6986 187.904C73.5088 188.56 72.9393 189.612 71.3861 189.612C70.0399 189.612 68.8491 188.594 68.8491 186.696C68.8491 184.763 70.0572 183.796 71.3688 183.796ZM78.0026 185.85C78.0717 184.78 78.9001 183.727 80.2635 183.727C81.7304 183.727 82.507 184.659 82.5415 185.85H78.0026ZM82.7831 188.007C82.4725 188.939 81.7994 189.681 80.4533 189.681C79.0554 189.681 77.9854 188.646 77.9509 187.162H84.1983C84.2156 187.058 84.2328 186.851 84.2328 186.644C84.2328 184.055 82.8004 182.295 80.2462 182.295C78.158 182.295 76.2768 184.072 76.2768 186.678C76.2768 189.491 78.227 191.114 80.4533 191.114C82.3862 191.114 83.7151 189.957 84.181 188.491L82.7831 188.007ZM87.9086 194.134V189.733C88.3574 190.475 89.3238 191.079 90.6009 191.079C93.0343 191.079 94.4667 189.164 94.4667 186.696C94.4667 184.28 93.1378 182.364 90.6527 182.364C89.3065 182.364 88.3228 183.02 87.8741 183.848V182.554H86.3036V194.134H87.9086ZM92.8099 186.696C92.8099 188.404 91.8607 189.63 90.3593 189.63C88.8751 189.63 87.8914 188.404 87.8914 186.696C87.8914 185.039 88.8751 183.796 90.3593 183.796C91.878 183.796 92.8099 185.039 92.8099 186.696ZM98.624 179.931H97.1398V181.277C97.1398 182.001 96.7601 182.554 95.8627 182.554H95.414V184.021H97.0018V188.577C97.0018 190.078 97.8992 190.941 99.3143 190.941C99.8666 190.941 100.281 190.838 100.419 190.786V189.405C100.281 189.44 99.9874 189.474 99.7803 189.474C98.9347 189.474 98.624 189.095 98.624 188.335V184.021H100.419V182.554H98.624V179.931ZM103.553 185.85C103.622 184.78 104.45 183.727 105.813 183.727C107.28 183.727 108.057 184.659 108.092 185.85H103.553ZM108.333 188.007C108.023 188.939 107.349 189.681 106.003 189.681C104.605 189.681 103.535 188.646 103.501 187.162H109.748C109.766 187.058 109.783 186.851 109.783 186.644C109.783 184.055 108.35 182.295 105.796 182.295C103.708 182.295 101.827 184.072 101.827 186.678C101.827 189.491 103.777 191.114 106.003 191.114C107.936 191.114 109.265 189.957 109.731 188.491L108.333 188.007ZM112.82 186.678C112.82 184.97 113.787 183.762 115.271 183.762C116.755 183.762 117.652 184.935 117.652 186.644C117.652 188.352 116.738 189.647 115.254 189.647C113.7 189.647 112.82 188.387 112.82 186.678ZM117.67 189.733C117.67 190.234 117.721 190.665 117.756 190.855H119.326C119.309 190.717 119.24 190.113 119.24 189.319V178.36H117.635V183.727C117.359 183.054 116.565 182.329 115.098 182.329C112.751 182.329 111.163 184.331 111.163 186.678C111.163 189.146 112.665 191.079 115.098 191.079C116.393 191.079 117.273 190.389 117.67 189.595V189.733Z" fill="#93989F"/>
<g opacity="0.7">
<path opacity="0.8" d="M154.608 187.16C154.148 187.718 153.293 187.718 152.833 187.16L150.291 184.079C149.672 183.328 150.206 182.196 151.179 182.196H156.262C157.235 182.196 157.769 183.328 157.15 184.079L154.608 187.16Z" fill="#A8B5D3"/>
</g>
<circle cx="34.0645" cy="184.785" r="4.60215" fill="#52DDC2"/>
<path d="M31.7922 42.8065V39.6655H24.3989V35.703H31.0915V32.7312H24.3989V28.8171H31.7922V25.6761H21.0646V42.8065H31.7922ZM45.8133 30.9191H42.4307L39.6039 38.8923L36.6562 30.9191H33.1286L37.985 42.8065H41.1985L45.8133 30.9191ZM49.7582 35.5097C49.8307 34.4225 50.7488 33.1661 52.4159 33.1661C54.2522 33.1661 55.0254 34.3258 55.0737 35.5097H49.7582ZM55.3878 38.6024C55.0012 39.6655 54.1797 40.4145 52.6817 40.4145C51.0871 40.4145 49.7582 39.2789 49.6857 37.7084H58.1905C58.1905 37.6601 58.2388 37.1769 58.2388 36.7178C58.2388 32.9003 56.0401 30.5567 52.3676 30.5567C49.3233 30.5567 46.5206 33.0211 46.5206 36.8145C46.5206 40.8252 49.3958 43.1689 52.6576 43.1689C55.5811 43.1689 57.4657 41.4534 58.0697 39.3997L55.3878 38.6024ZM63.9828 35.9688C63.9828 34.5916 64.8043 33.5044 66.2056 33.5044C67.7519 33.5044 68.4043 34.5433 68.4043 35.8722V42.8065H71.6178V35.3165C71.6178 32.707 70.2647 30.605 67.317 30.605C66.0365 30.605 64.611 31.1607 63.8861 32.3929V30.9191H60.7693V42.8065H63.9828V35.9688ZM78.8416 27.3674H75.9422V29.0345C75.9422 30.0976 75.3624 30.9191 74.106 30.9191H73.502V33.7701H75.6523V39.3031C75.6523 41.5984 77.102 42.9756 79.4215 42.9756C80.3638 42.9756 80.9436 42.8065 81.2336 42.6857V40.0279C81.0644 40.0762 80.6295 40.1246 80.243 40.1246C79.3248 40.1246 78.8416 39.7863 78.8416 38.7474V33.7701H81.2336V30.9191H78.8416V27.3674ZM95.9748 42.8065V27.1258H93.0996C92.7855 28.7687 91.1909 30.0493 88.8955 30.0735V32.3205H92.6647V42.8065H95.9748Z" fill="#333333"/>
<path d="M284.34 484V466.87H280.957V484H284.34ZM291.22 477.162C291.22 475.785 292.041 474.698 293.443 474.698C294.989 474.698 295.641 475.737 295.641 477.066V484H298.855V476.51C298.855 473.901 297.502 471.799 294.554 471.799C293.273 471.799 291.848 472.354 291.123 473.586V472.113H288.006V484H291.22V477.162ZM313.115 472.113H309.732L306.905 480.086L303.957 472.113H300.43L305.286 484H308.5L313.115 472.113ZM320.056 481.439C318.485 481.439 317.035 480.279 317.035 478.056C317.035 475.809 318.485 474.674 320.056 474.674C321.626 474.674 323.076 475.809 323.076 478.056C323.076 480.303 321.626 481.439 320.056 481.439ZM320.056 471.75C316.504 471.75 313.822 474.384 313.822 478.056C313.822 481.705 316.504 484.362 320.056 484.362C323.607 484.362 326.289 481.705 326.289 478.056C326.289 474.384 323.607 471.75 320.056 471.75ZM332.039 484V472.113H328.826V484H332.039ZM328.439 468.223C328.439 469.286 329.333 470.18 330.42 470.18C331.532 470.18 332.402 469.286 332.402 468.223C332.402 467.111 331.532 466.217 330.42 466.217C329.333 466.217 328.439 467.111 328.439 468.223ZM340.819 474.722C342.414 474.722 343.163 475.737 343.453 476.727L346.328 475.761C345.821 473.756 343.984 471.75 340.747 471.75C337.292 471.75 334.586 474.384 334.586 478.056C334.586 481.705 337.34 484.362 340.843 484.362C344.008 484.362 345.869 482.333 346.4 480.352L343.574 479.409C343.308 480.327 342.486 481.415 340.843 481.415C339.2 481.415 337.799 480.207 337.799 478.056C337.799 475.906 339.176 474.722 340.819 474.722ZM350.989 476.703C351.062 475.616 351.98 474.36 353.647 474.36C355.483 474.36 356.256 475.519 356.305 476.703H350.989ZM356.619 479.796C356.232 480.859 355.411 481.608 353.913 481.608C352.318 481.608 350.989 480.472 350.917 478.902H359.421C359.421 478.854 359.47 478.37 359.47 477.911C359.47 474.094 357.271 471.75 353.599 471.75C350.554 471.75 347.752 474.215 347.752 478.008C347.752 482.019 350.627 484.362 353.888 484.362C356.812 484.362 358.697 482.647 359.301 480.593L356.619 479.796ZM368.453 474.432H371.425L370.7 477.815H367.245V480.11H370.193L369.371 484H371.908L372.73 480.11H375.895L375.073 484H377.586L378.407 480.11H381.983V477.815H378.915L379.64 474.432H383.191V472.113H380.123L380.944 468.343H378.432L377.61 472.113H374.445L375.267 468.343H372.73L371.908 472.113H368.453V474.432ZM373.962 474.432H377.127L376.402 477.815H373.237L373.962 474.432ZM388.181 476.172C388.181 474.529 388.423 473.127 389.027 472.185C389.51 471.412 390.259 470.905 391.395 470.905C392.554 470.905 393.255 471.412 393.738 472.185C394.366 473.127 394.608 474.529 394.608 476.172C394.608 477.815 394.366 479.216 393.738 480.158C393.255 480.932 392.554 481.439 391.395 481.439C390.259 481.439 389.51 480.932 389.027 480.158C388.423 479.216 388.181 477.815 388.181 476.172ZM384.847 476.172C384.847 478.177 385.161 480.134 386.224 481.753C387.263 483.299 388.954 484.387 391.395 484.387C393.835 484.387 395.526 483.299 396.541 481.753C397.604 480.134 397.942 478.177 397.942 476.172C397.942 474.166 397.604 472.209 396.541 470.59C395.526 469.044 393.835 467.957 391.395 467.957C388.954 467.957 387.263 469.044 386.224 470.59C385.161 472.209 384.847 474.166 384.847 476.172ZM399.587 479.603C399.78 482.067 402.148 484.387 405.555 484.387C409.324 484.387 411.571 481.85 411.571 478.926C411.571 475.568 409.348 473.683 406.207 473.683C405.168 473.683 404.057 474.021 403.38 474.65L404.153 471.195H410.725V468.319H401.882L400.022 476.365C400.36 476.462 402.752 477.283 403.066 477.404C403.574 476.824 404.419 476.341 405.482 476.341C406.932 476.341 408.261 477.187 408.261 478.974C408.261 480.545 407.053 481.536 405.555 481.536C403.888 481.536 402.776 480.352 402.704 478.902L399.587 479.603Z" fill="#333333"/>
<path d="M30.2562 74.6237H32.8185L27.4202 60.7562H24.7014L19.3031 74.6237H21.7871L23.078 71.1421H28.9458L30.2562 74.6237ZM26.0119 63.2989L28.1243 68.9711H23.8995L26.0119 63.2989ZM39.9968 65.0397C39.899 65.0201 39.6643 64.981 39.3905 64.981C38.1387 64.981 37.0825 65.5873 36.6327 66.624V65.0984H34.4225V74.6237H36.6913V70.0859C36.6913 68.3061 37.4933 67.289 39.2536 67.289C39.4883 67.289 39.7426 67.3085 39.9968 67.3477V65.0397ZM45.1863 62.184H43.1326V63.6119C43.1326 64.4529 42.6827 65.0984 41.6656 65.0984H41.1767V67.1129H42.937V71.9049C42.937 73.6848 44.0323 74.741 45.7926 74.741C46.6141 74.741 47.0444 74.5845 47.1813 74.5259V72.6482C47.0835 72.6677 46.7119 72.7264 46.3989 72.7264C45.5579 72.7264 45.1863 72.3744 45.1863 71.5333V67.1129H47.1618V65.0984H45.1863V62.184ZM66.8046 74.6237V67.6019H60.0176V69.6556H64.5944C64.4771 70.8487 63.4209 72.7655 60.6239 72.7655C58.2377 72.7655 56.0471 71.0639 56.0471 67.6802C56.0471 64.2378 58.3942 62.6339 60.6435 62.6339C62.8537 62.6339 64.2228 63.9639 64.6922 65.5287L66.9024 64.6876C66.1592 62.3992 64.0077 60.4628 60.6435 60.4628C57.0446 60.4628 53.6609 63.1229 53.6609 67.6802C53.6609 72.257 56.8686 74.917 60.487 74.917C62.6972 74.917 64.125 73.8804 64.7314 72.8633L64.9074 74.6237H66.8046ZM68.8664 72.0419C68.8664 73.5479 70.0987 74.917 72.0937 74.917C73.6389 74.917 74.5777 74.1347 75.0276 73.411C75.0276 74.1738 75.1058 74.565 75.1254 74.6237H77.2378C77.2182 74.5259 77.1204 73.9586 77.1204 73.098V68.3647C77.1204 66.4675 76.0055 64.805 73.0717 64.805C70.7246 64.805 69.2381 66.2719 69.062 67.9149L71.1353 68.3843C71.2331 67.4259 71.8981 66.6631 73.0912 66.6631C74.343 66.6631 74.8907 67.3085 74.8907 68.1105C74.8907 68.443 74.7342 68.7168 74.1865 68.795L71.7416 69.1667C70.1182 69.4014 68.8664 70.3402 68.8664 72.0419ZM72.524 73.1372C71.6243 73.1372 71.1353 72.5504 71.1353 71.9049C71.1353 71.1226 71.7025 70.7314 72.4066 70.614L74.8907 70.2424V70.6727C74.8907 72.5308 73.7953 73.1372 72.524 73.1372ZM82.132 74.6237V60.4628H79.8631V74.6237H82.132ZM87.3274 74.6237V60.4628H85.0585V74.6237H87.3274ZM91.8382 68.8146C91.9164 67.7975 92.7379 66.7022 94.1657 66.7022C95.7305 66.7022 96.4737 67.6997 96.5128 68.8146H91.8382ZM96.7671 71.2986C96.4542 72.2374 95.75 72.9611 94.3809 72.9611C92.9726 72.9611 91.8382 71.9245 91.7795 70.4771H98.7426C98.7621 70.438 98.8013 70.1251 98.8013 69.7534C98.8013 66.7413 97.08 64.805 94.1462 64.805C91.7404 64.805 89.5107 66.8 89.5107 69.8121C89.5107 73.0394 91.7991 74.917 94.3809 74.917C96.6693 74.917 98.1754 73.5675 98.6839 71.9049L96.7671 71.2986ZM106.544 65.0397C106.446 65.0201 106.211 64.981 105.937 64.981C104.686 64.981 103.629 65.5873 103.18 66.624V65.0984H100.969V74.6237H103.238V70.0859C103.238 68.3061 104.04 67.289 105.801 67.289C106.035 67.289 106.289 67.3085 106.544 67.3477V65.0397ZM111.676 78.4768L117.74 65.0984H115.334L112.772 71.1226L110.033 65.0984H107.471L111.539 73.4892L109.251 78.4768H111.676Z" fill="#A8B5D3"/>
<path d="M281.391 513.814C281.391 516.514 283.112 518.293 285.831 518.293C288.472 518.293 290.193 516.24 290.193 513.775V504.133H287.846V513.834C287.846 515.242 287.063 516.083 285.812 516.083C284.599 516.083 283.68 515.36 283.68 513.736V512.445L281.391 512.915V513.814ZM299.306 516.944C299.306 517.335 299.345 517.785 299.385 518H301.556C301.516 517.648 301.458 517.042 301.458 516.259V508.475H299.189V514.108C299.189 515.36 298.504 516.24 297.194 516.24C295.825 516.24 295.277 515.242 295.277 514.069V508.475H293.008V514.479C293.008 516.592 294.338 518.274 296.607 518.274C297.722 518.274 298.837 517.804 299.306 516.944ZM303.554 515.418C303.671 516.494 304.727 518.293 307.485 518.293C309.91 518.293 311.084 516.69 311.084 515.242C311.084 513.834 310.145 512.739 308.346 512.347L306.898 512.054C306.311 511.937 305.94 511.565 305.94 511.057C305.94 510.47 306.507 509.961 307.309 509.961C308.58 509.961 308.991 510.841 309.069 511.389L310.986 510.841C310.83 509.903 309.969 508.181 307.309 508.181C305.333 508.181 303.808 509.59 303.808 511.252C303.808 512.563 304.688 513.658 306.37 514.029L307.778 514.342C308.541 514.499 308.893 514.89 308.893 515.399C308.893 515.985 308.404 516.494 307.465 516.494C306.253 516.494 305.607 515.731 305.529 514.871L303.554 515.418ZM316.209 505.56H314.155V506.988C314.155 507.829 313.705 508.475 312.688 508.475H312.199V510.489H313.96V515.281C313.96 517.061 315.055 518.117 316.815 518.117C317.637 518.117 318.067 517.961 318.204 517.902V516.025C318.106 516.044 317.735 516.103 317.422 516.103C316.581 516.103 316.209 515.751 316.209 514.91V510.489H318.184V508.475H316.209V505.56ZM325.621 514.929L321.749 504.133H319.206L324.37 518H326.756L331.998 504.133H329.514L325.621 514.929ZM334.076 512.191C334.154 511.174 334.976 510.079 336.404 510.079C337.968 510.079 338.712 511.076 338.751 512.191H334.076ZM339.005 514.675C338.692 515.614 337.988 516.337 336.619 516.337C335.21 516.337 334.076 515.301 334.017 513.853H340.98C341 513.814 341.039 513.501 341.039 513.13C341.039 510.118 339.318 508.181 336.384 508.181C333.978 508.181 331.748 510.176 331.748 513.188C331.748 516.416 334.037 518.293 336.619 518.293C338.907 518.293 340.413 516.944 340.922 515.281L339.005 514.675ZM345.476 512.504C345.476 511.252 346.161 510.255 347.452 510.255C348.879 510.255 349.407 511.193 349.407 512.367V518H351.676V511.976C351.676 509.883 350.561 508.201 348.234 508.201C347.178 508.201 346.043 508.651 345.417 509.746V508.475H343.207V518H345.476V512.504ZM360.505 516.944C360.505 517.335 360.544 517.785 360.583 518H362.754C362.715 517.648 362.657 517.042 362.657 516.259V508.475H360.388V514.108C360.388 515.36 359.703 516.24 358.393 516.24C357.023 516.24 356.476 515.242 356.476 514.069V508.475H354.207V514.479C354.207 516.592 355.537 518.274 357.806 518.274C358.921 518.274 360.036 517.804 360.505 516.944ZM367.12 512.191C367.199 511.174 368.02 510.079 369.448 510.079C371.013 510.079 371.756 511.076 371.795 512.191H367.12ZM372.049 514.675C371.736 515.614 371.032 516.337 369.663 516.337C368.255 516.337 367.12 515.301 367.062 513.853H374.025C374.044 513.814 374.083 513.501 374.083 513.13C374.083 510.118 372.362 508.181 369.428 508.181C367.022 508.181 364.793 510.176 364.793 513.188C364.793 516.416 367.081 518.293 369.663 518.293C371.951 518.293 373.457 516.944 373.966 515.281L372.049 514.675ZM390.002 518V515.77H383.646V504.133H381.299V518H390.002ZM394.445 505.56H392.392V506.988C392.392 507.829 391.942 508.475 390.925 508.475H390.436V510.489H392.196V515.281C392.196 517.061 393.291 518.117 395.052 518.117C395.873 518.117 396.304 517.961 396.44 517.902V516.025C396.343 516.044 395.971 516.103 395.658 516.103C394.817 516.103 394.445 515.751 394.445 514.91V510.489H396.421V508.475H394.445V505.56ZM400.182 513.208C400.182 511.389 401.278 510.235 402.764 510.235C404.251 510.235 405.268 511.369 405.268 513.188C405.268 515.007 404.231 516.24 402.745 516.24C401.199 516.24 400.182 515.027 400.182 513.208ZM407.458 503.839H405.248V509.59C404.955 508.983 404.114 508.22 402.451 508.22C399.772 508.22 397.913 510.47 397.913 513.208C397.913 516.083 399.752 518.235 402.49 518.235C403.84 518.235 404.837 517.57 405.287 516.768C405.287 517.159 405.346 517.785 405.385 518H407.556C407.536 517.844 407.458 517.12 407.458 516.259V503.839Z" fill="#A1CEBE"/>
<path d="M21.7492 98.7704C21.7492 97.4496 21.9747 96.4348 22.4901 95.7905C22.8445 95.3234 23.3438 95.0174 24.1009 95.0174C24.8579 95.0174 25.3411 95.3234 25.7116 95.7905C26.2109 96.4348 26.4365 97.4496 26.4365 98.7704C26.4365 100.091 26.2109 101.106 25.7116 101.75C25.3411 102.217 24.8579 102.523 24.1009 102.523C23.3438 102.523 22.8445 102.217 22.4901 101.75C21.9908 101.106 21.7492 100.091 21.7492 98.7704ZM19.8324 98.7704C19.8324 100.156 20.0579 101.46 20.7666 102.523C21.4431 103.538 22.5384 104.231 24.1009 104.231C25.6633 104.231 26.7425 103.538 27.419 102.523C28.1277 101.46 28.3533 100.156 28.3533 98.7704C28.3533 97.3852 28.1277 96.0805 27.419 95.0174C26.7425 94.0026 25.6633 93.31 24.1009 93.31C22.5384 93.31 21.4431 94.0026 20.7666 95.0174C20.0579 96.0805 19.8324 97.3852 19.8324 98.7704ZM31.6748 98.7704C31.6748 97.4496 31.9003 96.4348 32.4157 95.7905C32.7701 95.3234 33.2694 95.0174 34.0265 95.0174C34.7836 95.0174 35.2668 95.3234 35.6373 95.7905C36.1366 96.4348 36.3621 97.4496 36.3621 98.7704C36.3621 100.091 36.1366 101.106 35.6373 101.75C35.2668 102.217 34.7836 102.523 34.0265 102.523C33.2694 102.523 32.7701 102.217 32.4157 101.75C31.9164 101.106 31.6748 100.091 31.6748 98.7704ZM29.758 98.7704C29.758 100.156 29.9835 101.46 30.6922 102.523C31.3688 103.538 32.4641 104.231 34.0265 104.231C35.5889 104.231 36.6681 103.538 37.3446 102.523C38.0534 101.46 38.2789 100.156 38.2789 98.7704C38.2789 97.3852 38.0534 96.0805 37.3446 95.0174C36.6681 94.0026 35.5889 93.31 34.0265 93.31C32.4641 93.31 31.3688 94.0026 30.6922 95.0174C29.9835 96.0805 29.758 97.3852 29.758 98.7704ZM40.1496 102.797C40.1496 103.506 40.7295 104.086 41.4543 104.086C42.1631 104.086 42.759 103.506 42.759 102.797C42.759 102.072 42.1631 101.493 41.4543 101.493C40.7295 101.493 40.1496 102.072 40.1496 102.797ZM40.1335 97.353C40.1335 98.0617 40.7134 98.6416 41.4382 98.6416C42.147 98.6416 42.7429 98.0617 42.7429 97.353C42.7429 96.6281 42.147 96.0482 41.4382 96.0482C40.7134 96.0482 40.1335 96.6281 40.1335 97.353ZM46.5082 98.7704C46.5082 97.4496 46.7337 96.4348 47.2491 95.7905C47.6035 95.3234 48.1028 95.0174 48.8599 95.0174C49.617 95.0174 50.1002 95.3234 50.4706 95.7905C50.97 96.4348 51.1955 97.4496 51.1955 98.7704C51.1955 100.091 50.97 101.106 50.4706 101.75C50.1002 102.217 49.617 102.523 48.8599 102.523C48.1028 102.523 47.6035 102.217 47.2491 101.75C46.7498 101.106 46.5082 100.091 46.5082 98.7704ZM44.5914 98.7704C44.5914 100.156 44.8169 101.46 45.5256 102.523C46.2022 103.538 47.2975 104.231 48.8599 104.231C50.4223 104.231 51.5015 103.538 52.178 102.523C52.8868 101.46 53.1123 100.156 53.1123 98.7704C53.1123 97.3852 52.8868 96.0805 52.178 95.0174C51.5015 94.0026 50.4223 93.31 48.8599 93.31C47.2975 93.31 46.2022 94.0026 45.5256 95.0174C44.8169 96.0805 44.5914 97.3852 44.5914 98.7704ZM54.7253 103.635C55.2568 103.989 56.2877 104.231 57.1414 104.231C60.6851 104.231 62.4891 101.976 62.4891 98.1905C62.4891 94.8563 60.5401 93.31 58.3656 93.31C56.175 93.31 54.4354 94.7919 54.4354 96.9503C54.4354 99.1731 56.1589 100.462 58.0435 100.462C59.2837 100.462 60.2019 99.9302 60.5884 99.2536C60.4918 101.219 59.3159 102.54 57.1253 102.54C56.4327 102.54 55.6595 102.314 55.2568 102.056L54.7253 103.635ZM60.3307 96.8858C60.3307 98.0778 59.3804 98.8348 58.3334 98.8348C57.2542 98.8348 56.3361 98.11 56.3361 96.8858C56.3361 95.71 57.2703 94.9529 58.3334 94.9529C59.3804 94.9529 60.3307 95.7261 60.3307 96.8858ZM71.6748 100.107V98.4483H67.1325V100.107H71.6748ZM80.4746 103.989V93.5516H78.7994C78.5739 94.6469 77.543 95.4845 76.045 95.5167V96.8375H78.5739V103.989H80.4746ZM86.271 97.9006C85.2401 97.8845 84.5636 97.2402 84.5636 96.3704C84.5636 95.5811 85.2079 94.8885 86.271 94.8885C87.3341 94.8885 87.9945 95.5811 87.9945 96.3704C87.9945 97.2402 87.318 97.8845 86.271 97.9006ZM86.271 102.604C85.0146 102.604 84.322 101.863 84.322 101.009C84.322 100.156 85.0146 99.3986 86.271 99.3986C87.5435 99.3986 88.2361 100.156 88.2361 101.009C88.2361 101.863 87.5435 102.604 86.271 102.604ZM86.271 104.231C88.671 104.231 90.1529 102.942 90.1529 101.203C90.1529 100.011 89.3153 99.0281 88.22 98.6416C89.2187 98.2711 89.9113 97.2724 89.9113 96.2576C89.9113 94.518 88.365 93.31 86.271 93.31C84.177 93.31 82.6468 94.518 82.6468 96.2576C82.6468 97.2885 83.3394 98.2711 84.3381 98.6416C83.2267 99.0281 82.4052 100.011 82.4052 101.203C82.4052 102.942 83.8871 104.231 86.271 104.231ZM91.98 102.797C91.98 103.506 92.5599 104.086 93.2847 104.086C93.9934 104.086 94.5894 103.506 94.5894 102.797C94.5894 102.072 93.9934 101.493 93.2847 101.493C92.5599 101.493 91.98 102.072 91.98 102.797ZM91.9639 97.353C91.9639 98.0617 92.5438 98.6416 93.2686 98.6416C93.9773 98.6416 94.5733 98.0617 94.5733 97.353C94.5733 96.6281 93.9773 96.0482 93.2686 96.0482C92.5438 96.0482 91.9639 96.6281 91.9639 97.353ZM99.2245 99.2536C99.3856 99.1731 99.7077 99.0765 100.207 99.0765C101.093 99.0765 102.059 99.5919 102.059 100.8C102.059 101.75 101.351 102.572 100.078 102.572C98.9184 102.572 98.0486 101.75 98.0003 100.542L96.1157 100.929C96.2446 102.668 97.6782 104.231 100.094 104.231C102.575 104.231 104.008 102.604 104.008 100.816C104.008 98.8026 102.446 97.6751 100.884 97.6429L103.718 95.1623V93.5516H96.4701V95.2429H101.222L98.3386 97.8201L99.2245 99.2536ZM107.179 98.7704C107.179 97.4496 107.404 96.4348 107.92 95.7905C108.274 95.3234 108.773 95.0174 109.531 95.0174C110.288 95.0174 110.771 95.3234 111.141 95.7905C111.641 96.4348 111.866 97.4496 111.866 98.7704C111.866 100.091 111.641 101.106 111.141 101.75C110.771 102.217 110.288 102.523 109.531 102.523C108.773 102.523 108.274 102.217 107.92 101.75C107.42 101.106 107.179 100.091 107.179 98.7704ZM105.262 98.7704C105.262 100.156 105.488 101.46 106.196 102.523C106.873 103.538 107.968 104.231 109.531 104.231C111.093 104.231 112.172 103.538 112.849 102.523C113.557 101.46 113.783 100.156 113.783 98.7704C113.783 97.3852 113.557 96.0805 112.849 95.0174C112.172 94.0026 111.093 93.31 109.531 93.31C107.968 93.31 106.873 94.0026 106.196 95.0174C105.488 96.0805 105.262 97.3852 105.262 98.7704Z" fill="#A8B5D3"/>
<rect x="155" y="319" width="229" height="90" rx="9.2043" fill="#E92579"/>
<line opacity="0.5" x1="231" y1="320" x2="231" y2="409" stroke="#FDF0F6" stroke-width="2"/>
<line opacity="0.5" x1="304" y1="320" x2="304" y2="409" stroke="#FDF0F6" stroke-width="2"/>
<rect x="281" y="544" width="175" height="15" rx="7.5" fill="#7FDFBF"/>
<rect x="281" y="546" width="175" height="15" rx="7.5" fill="#7FDFBF"/>
<rect x="281" y="571" width="107" height="15" rx="7.5" fill="#7FDFBF"/>
<rect x="281" y="596" width="134" height="15" rx="7.5" fill="#7FDFBF"/>
<rect x="521" y="546" width="15" height="15" rx="7.5" fill="#A1CEBE"/>
<rect x="521" y="571" width="15" height="15" rx="7.5" fill="#A1CEBE"/>
<rect x="521" y="596" width="15" height="15" rx="7.5" fill="#A1CEBE"/>
<path d="M206.205 136.831C206.205 136.831 223.654 138.916 232.52 151.675C241.386 164.435 240.169 179.449 240.169 179.449M240.169 179.449C240.114 178.738 232.558 170.272 224.211 170.046M240.169 179.449C240.169 179.449 249.505 170.409 250.114 162.902" stroke="#D6DEF2" stroke-width="5" stroke-linecap="round" stroke-linejoin="round"/>
<path d="M193.158 460C193.158 460 194.946 483.194 211.33 495.63C227.713 508.066 247.639 507.291 247.639 507.291M247.639 507.291C246.702 507.178 235.923 496.714 236.089 485.661M247.639 507.291C247.639 507.291 235.163 519.137 225.2 519.524" stroke="#F5DEE8" stroke-width="5" stroke-linecap="round" stroke-linejoin="round"/>
<rect x="85" y="529" width="70" height="70" rx="9" fill="#EEF2FC"/>
<rect x="37" y="484" width="34" height="34" rx="9" fill="#FDF0F6"/>
<rect x="325" y="67" width="45" height="44" rx="9" fill="#E2FAF2"/>
</svg>
