<svg width="216" height="353" viewBox="0 0 216 353" fill="none" xmlns="http://www.w3.org/2000/svg">
<path opacity="0.1" d="M0 0L190 21V318L0 353V0Z" fill="black"/>
<rect y="53" width="134" height="154" rx="7" fill="#FBCCE0"/>
<rect x="32" y="96" width="158" height="186" rx="8" fill="white"/>
<g filter="url(#filter0_d)">
<rect x="44" y="238" width="135" height="32" rx="4" fill="white"/>
<rect x="44.5" y="238.5" width="134" height="31" rx="3.5" stroke="#E6E8E9"/>
</g>
<path d="M77.715 259.5H79.305L75.075 248.865H73.38L69.15 259.5H70.725L71.85 256.53H76.56L77.715 259.5ZM74.19 250.395L76.035 255.165H72.375L74.19 250.395ZM83.5425 253.365C84.7725 253.365 85.2975 254.19 85.4775 254.895L86.7525 254.355C86.4525 253.26 85.4625 252.06 83.5425 252.06C81.4875 252.06 79.9125 253.635 79.9125 255.885C79.9125 258.075 81.4575 259.725 83.5575 259.725C85.4325 259.725 86.4675 258.51 86.8125 257.475L85.5675 256.935C85.4025 257.505 84.9075 258.42 83.5575 258.42C82.3875 258.42 81.3525 257.535 81.3525 255.885C81.3525 254.205 82.4025 253.365 83.5425 253.365ZM91.4234 253.365C92.6534 253.365 93.1784 254.19 93.3584 254.895L94.6334 254.355C94.3334 253.26 93.3434 252.06 91.4234 252.06C89.3684 252.06 87.7934 253.635 87.7934 255.885C87.7934 258.075 89.3384 259.725 91.4384 259.725C93.3134 259.725 94.3484 258.51 94.6934 257.475L93.4484 256.935C93.2834 257.505 92.7884 258.42 91.4384 258.42C90.2684 258.42 89.2334 257.535 89.2334 255.885C89.2334 254.205 90.2834 253.365 91.4234 253.365ZM97.1892 255.15C97.2492 254.22 97.9692 253.305 99.1542 253.305C100.429 253.305 101.104 254.115 101.134 255.15H97.1892ZM101.344 257.025C101.074 257.835 100.489 258.48 99.3192 258.48C98.1042 258.48 97.1742 257.58 97.1442 256.29H102.574C102.589 256.2 102.604 256.02 102.604 255.84C102.604 253.59 101.359 252.06 99.1392 252.06C97.3242 252.06 95.6892 253.605 95.6892 255.87C95.6892 258.315 97.3842 259.725 99.3192 259.725C100.999 259.725 102.154 258.72 102.559 257.445L101.344 257.025ZM105.799 262.35V258.525C106.189 259.17 107.029 259.695 108.139 259.695C110.254 259.695 111.499 258.03 111.499 255.885C111.499 253.785 110.344 252.12 108.184 252.12C107.014 252.12 106.159 252.69 105.769 253.41V252.285H104.404V262.35H105.799ZM110.059 255.885C110.059 257.37 109.234 258.435 107.929 258.435C106.639 258.435 105.784 257.37 105.784 255.885C105.784 254.445 106.639 253.365 107.929 253.365C109.249 253.365 110.059 254.445 110.059 255.885ZM115.112 250.005H113.822V251.175C113.822 251.805 113.492 252.285 112.712 252.285H112.322V253.56H113.702V257.52C113.702 258.825 114.482 259.575 115.712 259.575C116.192 259.575 116.552 259.485 116.672 259.44V258.24C116.552 258.27 116.297 258.3 116.117 258.3C115.382 258.3 115.112 257.97 115.112 257.31V253.56H116.672V252.285H115.112V250.005ZM119.396 255.15C119.456 254.22 120.176 253.305 121.361 253.305C122.636 253.305 123.311 254.115 123.341 255.15H119.396ZM123.551 257.025C123.281 257.835 122.696 258.48 121.526 258.48C120.311 258.48 119.381 257.58 119.351 256.29H124.781C124.796 256.2 124.811 256.02 124.811 255.84C124.811 253.59 123.566 252.06 121.346 252.06C119.531 252.06 117.896 253.605 117.896 255.87C117.896 258.315 119.591 259.725 121.526 259.725C123.206 259.725 124.361 258.72 124.766 257.445L123.551 257.025ZM127.451 255.87C127.451 254.385 128.291 253.335 129.581 253.335C130.871 253.335 131.651 254.355 131.651 255.84C131.651 257.325 130.856 258.45 129.566 258.45C128.216 258.45 127.451 257.355 127.451 255.87ZM131.666 258.525C131.666 258.96 131.711 259.335 131.741 259.5H133.106C133.091 259.38 133.031 258.855 133.031 258.165V248.64H131.636V253.305C131.396 252.72 130.706 252.09 129.431 252.09C127.391 252.09 126.011 253.83 126.011 255.87C126.011 258.015 127.316 259.695 129.431 259.695C130.556 259.695 131.321 259.095 131.666 258.405V258.525Z" fill="#93989F"/>
<g opacity="0.7">
<path opacity="0.8" d="M163.771 256.065C163.371 256.55 162.629 256.55 162.229 256.065L160.019 253.386C159.481 252.734 159.945 251.75 160.791 251.75H165.209C166.055 251.75 166.519 252.734 165.981 253.386L163.771 256.065Z" fill="#93989F"/>
</g>
<circle cx="59" cy="254" r="4" fill="#52DDC2"/>
<path d="M57.025 131V128.27H50.599V124.826H56.416V122.243H50.599V118.841H57.025V116.111H47.701V131H57.025ZM69.2116 120.668H66.2716L63.8146 127.598L61.2526 120.668H58.1866L62.4076 131H65.2006L69.2116 120.668ZM72.6403 124.658C72.7033 123.713 73.5013 122.621 74.9503 122.621C76.5463 122.621 77.2183 123.629 77.2603 124.658H72.6403ZM77.5333 127.346C77.1973 128.27 76.4833 128.921 75.1813 128.921C73.7953 128.921 72.6403 127.934 72.5773 126.569H79.9693C79.9693 126.527 80.0113 126.107 80.0113 125.708C80.0113 122.39 78.1003 120.353 74.9083 120.353C72.2623 120.353 69.8263 122.495 69.8263 125.792C69.8263 129.278 72.3253 131.315 75.1603 131.315C77.7013 131.315 79.3393 129.824 79.8643 128.039L77.5333 127.346ZM85.0037 125.057C85.0037 123.86 85.7177 122.915 86.9357 122.915C88.2797 122.915 88.8467 123.818 88.8467 124.973V131H91.6397V124.49C91.6397 122.222 90.4637 120.395 87.9017 120.395C86.7887 120.395 85.5497 120.878 84.9197 121.949V120.668H82.2107V131H85.0037V125.057ZM97.9184 117.581H95.3984V119.03C95.3984 119.954 94.8944 120.668 93.8024 120.668H93.2774V123.146H95.1464V127.955C95.1464 129.95 96.4064 131.147 98.4224 131.147C99.2414 131.147 99.7454 131 99.9974 130.895V128.585C99.8504 128.627 99.4724 128.669 99.1364 128.669C98.3384 128.669 97.9184 128.375 97.9184 127.472V123.146H99.9974V120.668H97.9184V117.581ZM120.412 131V116.111H117.514V125.96L111.319 116.111H107.707V131H110.605V120.437L117.367 131H120.412ZM122.924 128.186C122.924 129.803 124.268 131.294 126.473 131.294C128.006 131.294 128.993 130.58 129.518 129.761C129.518 130.16 129.56 130.727 129.623 131H132.185C132.122 130.643 132.059 129.908 132.059 129.362V124.28C132.059 122.201 130.841 120.353 127.565 120.353C124.793 120.353 123.302 122.138 123.134 123.755L125.612 124.28C125.696 123.377 126.368 122.6 127.586 122.6C128.762 122.6 129.329 123.209 129.329 123.944C129.329 124.301 129.14 124.595 128.552 124.679L126.011 125.057C124.289 125.309 122.924 126.338 122.924 128.186ZM127.061 129.215C126.158 129.215 125.717 128.627 125.717 128.018C125.717 127.22 126.284 126.821 126.998 126.716L129.329 126.359V126.821C129.329 128.648 128.237 129.215 127.061 129.215ZM137.668 131V124.952C137.668 123.818 138.382 122.915 139.6 122.915C140.86 122.915 141.427 123.755 141.427 124.868V131H144.199V124.952C144.199 123.839 144.913 122.915 146.11 122.915C147.391 122.915 147.937 123.755 147.937 124.868V131H150.646V124.301C150.646 121.529 148.819 120.374 146.908 120.374C145.543 120.374 144.451 120.836 143.632 122.096C143.107 120.983 141.973 120.374 140.566 120.374C139.432 120.374 138.109 120.92 137.542 121.928V120.668H134.875V131H137.668ZM155.512 124.658C155.575 123.713 156.373 122.621 157.822 122.621C159.418 122.621 160.09 123.629 160.132 124.658H155.512ZM160.405 127.346C160.069 128.27 159.355 128.921 158.053 128.921C156.667 128.921 155.512 127.934 155.449 126.569H162.841C162.841 126.527 162.883 126.107 162.883 125.708C162.883 122.39 160.972 120.353 157.78 120.353C155.134 120.353 152.698 122.495 152.698 125.792C152.698 129.278 155.197 131.315 158.032 131.315C160.573 131.315 162.211 129.824 162.736 128.039L160.405 127.346Z" fill="#333333"/>
<path d="M55.69 158H57.917L53.225 145.947H50.862L46.17 158H48.329L49.451 154.974H54.551L55.69 158ZM52.001 148.157L53.837 153.087H50.165L52.001 148.157ZM64.1561 149.67C64.0711 149.653 63.8671 149.619 63.6291 149.619C62.5411 149.619 61.6231 150.146 61.2321 151.047V149.721H59.3111V158H61.2831V154.056C61.2831 152.509 61.9801 151.625 63.5101 151.625C63.7141 151.625 63.9351 151.642 64.1561 151.676V149.67ZM68.6666 147.188H66.8816V148.429C66.8816 149.16 66.4906 149.721 65.6066 149.721H65.1816V151.472H66.7116V155.637C66.7116 157.184 67.6636 158.102 69.1936 158.102C69.9076 158.102 70.2816 157.966 70.4006 157.915V156.283C70.3156 156.3 69.9926 156.351 69.7206 156.351C68.9896 156.351 68.6666 156.045 68.6666 155.314V151.472H70.3836V149.721H68.6666V147.188ZM87.4564 158V151.897H81.5574V153.682H85.5354C85.4334 154.719 84.5154 156.385 82.0844 156.385C80.0104 156.385 78.1064 154.906 78.1064 151.965C78.1064 148.973 80.1464 147.579 82.1014 147.579C84.0224 147.579 85.2124 148.735 85.6204 150.095L87.5414 149.364C86.8954 147.375 85.0254 145.692 82.1014 145.692C78.9734 145.692 76.0324 148.004 76.0324 151.965C76.0324 155.943 78.8204 158.255 81.9654 158.255C83.8864 158.255 85.1274 157.354 85.6544 156.47L85.8074 158H87.4564ZM89.2484 155.756C89.2484 157.065 90.3194 158.255 92.0534 158.255C93.3964 158.255 94.2124 157.575 94.6034 156.946C94.6034 157.609 94.6714 157.949 94.6884 158H96.5244C96.5074 157.915 96.4224 157.422 96.4224 156.674V152.56C96.4224 150.911 95.4534 149.466 92.9034 149.466C90.8634 149.466 89.5714 150.741 89.4184 152.169L91.2204 152.577C91.3054 151.744 91.8834 151.081 92.9204 151.081C94.0084 151.081 94.4844 151.642 94.4844 152.339C94.4844 152.628 94.3484 152.866 93.8724 152.934L91.7474 153.257C90.3364 153.461 89.2484 154.277 89.2484 155.756ZM92.4274 156.708C91.6454 156.708 91.2204 156.198 91.2204 155.637C91.2204 154.957 91.7134 154.617 92.3254 154.515L94.4844 154.192V154.566C94.4844 156.181 93.5324 156.708 92.4274 156.708ZM100.778 158V145.692H98.8063V158H100.778ZM105.294 158V145.692H103.322V158H105.294ZM109.215 152.951C109.283 152.067 109.997 151.115 111.238 151.115C112.598 151.115 113.244 151.982 113.278 152.951H109.215ZM113.499 155.11C113.227 155.926 112.615 156.555 111.425 156.555C110.201 156.555 109.215 155.654 109.164 154.396H115.216C115.233 154.362 115.267 154.09 115.267 153.767C115.267 151.149 113.771 149.466 111.221 149.466C109.13 149.466 107.192 151.2 107.192 153.818C107.192 156.623 109.181 158.255 111.425 158.255C113.414 158.255 114.723 157.082 115.165 155.637L113.499 155.11ZM121.996 149.67C121.911 149.653 121.707 149.619 121.469 149.619C120.381 149.619 119.463 150.146 119.072 151.047V149.721H117.151V158H119.123V154.056C119.123 152.509 119.82 151.625 121.35 151.625C121.554 151.625 121.775 151.642 121.996 151.676V149.67ZM126.457 161.349L131.727 149.721H129.636L127.409 154.957L125.029 149.721H122.802L126.338 157.014L124.349 161.349H126.457Z" fill="#6a4fc8"/>
<path d="M48.296 179.464C48.296 178.316 48.492 177.434 48.94 176.874C49.248 176.468 49.682 176.202 50.34 176.202C50.998 176.202 51.418 176.468 51.74 176.874C52.174 177.434 52.37 178.316 52.37 179.464C52.37 180.612 52.174 181.494 51.74 182.054C51.418 182.46 50.998 182.726 50.34 182.726C49.682 182.726 49.248 182.46 48.94 182.054C48.506 181.494 48.296 180.612 48.296 179.464ZM46.63 179.464C46.63 180.668 46.826 181.802 47.442 182.726C48.03 183.608 48.982 184.21 50.34 184.21C51.698 184.21 52.636 183.608 53.224 182.726C53.84 181.802 54.036 180.668 54.036 179.464C54.036 178.26 53.84 177.126 53.224 176.202C52.636 175.32 51.698 174.718 50.34 174.718C48.982 174.718 48.03 175.32 47.442 176.202C46.826 177.126 46.63 178.26 46.63 179.464ZM56.923 179.464C56.923 178.316 57.119 177.434 57.567 176.874C57.875 176.468 58.309 176.202 58.967 176.202C59.625 176.202 60.045 176.468 60.367 176.874C60.801 177.434 60.997 178.316 60.997 179.464C60.997 180.612 60.801 181.494 60.367 182.054C60.045 182.46 59.625 182.726 58.967 182.726C58.309 182.726 57.875 182.46 57.567 182.054C57.133 181.494 56.923 180.612 56.923 179.464ZM55.257 179.464C55.257 180.668 55.453 181.802 56.069 182.726C56.657 183.608 57.609 184.21 58.967 184.21C60.325 184.21 61.263 183.608 61.851 182.726C62.467 181.802 62.663 180.668 62.663 179.464C62.663 178.26 62.467 177.126 61.851 176.202C61.263 175.32 60.325 174.718 58.967 174.718C57.609 174.718 56.657 175.32 56.069 176.202C55.453 177.126 55.257 178.26 55.257 179.464ZM64.2889 182.964C64.2889 183.58 64.7929 184.084 65.4229 184.084C66.0389 184.084 66.5569 183.58 66.5569 182.964C66.5569 182.334 66.0389 181.83 65.4229 181.83C64.7929 181.83 64.2889 182.334 64.2889 182.964ZM64.2749 178.232C64.2749 178.848 64.7789 179.352 65.4089 179.352C66.0249 179.352 66.5429 178.848 66.5429 178.232C66.5429 177.602 66.0249 177.098 65.4089 177.098C64.7789 177.098 64.2749 177.602 64.2749 178.232ZM69.8155 179.464C69.8155 178.316 70.0115 177.434 70.4595 176.874C70.7675 176.468 71.2015 176.202 71.8595 176.202C72.5175 176.202 72.9375 176.468 73.2595 176.874C73.6935 177.434 73.8895 178.316 73.8895 179.464C73.8895 180.612 73.6935 181.494 73.2595 182.054C72.9375 182.46 72.5175 182.726 71.8595 182.726C71.2015 182.726 70.7675 182.46 70.4595 182.054C70.0255 181.494 69.8155 180.612 69.8155 179.464ZM68.1495 179.464C68.1495 180.668 68.3455 181.802 68.9615 182.726C69.5495 183.608 70.5015 184.21 71.8595 184.21C73.2175 184.21 74.1555 183.608 74.7435 182.726C75.3595 181.802 75.5555 180.668 75.5555 179.464C75.5555 178.26 75.3595 177.126 74.7435 176.202C74.1555 175.32 73.2175 174.718 71.8595 174.718C70.5015 174.718 69.5495 175.32 68.9615 176.202C68.3455 177.126 68.1495 178.26 68.1495 179.464ZM76.9575 183.692C77.4195 184 78.3155 184.21 79.0575 184.21C82.1375 184.21 83.7055 182.25 83.7055 178.96C83.7055 176.062 82.0115 174.718 80.1215 174.718C78.2175 174.718 76.7055 176.006 76.7055 177.882C76.7055 179.814 78.2035 180.934 79.8415 180.934C80.9195 180.934 81.7175 180.472 82.0535 179.884C81.9695 181.592 80.9475 182.74 79.0435 182.74C78.4415 182.74 77.7695 182.544 77.4195 182.32L76.9575 183.692ZM81.8295 177.826C81.8295 178.862 81.0035 179.52 80.0935 179.52C79.1555 179.52 78.3575 178.89 78.3575 177.826C78.3575 176.804 79.1695 176.146 80.0935 176.146C81.0035 176.146 81.8295 176.818 81.8295 177.826ZM91.6893 180.626V179.184H87.7413V180.626H91.6893ZM99.3377 184V174.928H97.8817C97.6857 175.88 96.7897 176.608 95.4877 176.636V177.784H97.6857V184H99.3377ZM104.376 178.708C103.48 178.694 102.892 178.134 102.892 177.378C102.892 176.692 103.452 176.09 104.376 176.09C105.3 176.09 105.874 176.692 105.874 177.378C105.874 178.134 105.286 178.694 104.376 178.708ZM104.376 182.796C103.284 182.796 102.682 182.152 102.682 181.41C102.682 180.668 103.284 180.01 104.376 180.01C105.482 180.01 106.084 180.668 106.084 181.41C106.084 182.152 105.482 182.796 104.376 182.796ZM104.376 184.21C106.462 184.21 107.75 183.09 107.75 181.578C107.75 180.542 107.022 179.688 106.07 179.352C106.938 179.03 107.54 178.162 107.54 177.28C107.54 175.768 106.196 174.718 104.376 174.718C102.556 174.718 101.226 175.768 101.226 177.28C101.226 178.176 101.828 179.03 102.696 179.352C101.73 179.688 101.016 180.542 101.016 181.578C101.016 183.09 102.304 184.21 104.376 184.21ZM109.338 182.964C109.338 183.58 109.842 184.084 110.472 184.084C111.088 184.084 111.606 183.58 111.606 182.964C111.606 182.334 111.088 181.83 110.472 181.83C109.842 181.83 109.338 182.334 109.338 182.964ZM109.324 178.232C109.324 178.848 109.828 179.352 110.458 179.352C111.074 179.352 111.592 178.848 111.592 178.232C111.592 177.602 111.074 177.098 110.458 177.098C109.828 177.098 109.324 177.602 109.324 178.232ZM115.634 179.884C115.774 179.814 116.054 179.73 116.488 179.73C117.258 179.73 118.098 180.178 118.098 181.228C118.098 182.054 117.482 182.768 116.376 182.768C115.368 182.768 114.612 182.054 114.57 181.004L112.932 181.34C113.044 182.852 114.29 184.21 116.39 184.21C118.546 184.21 119.792 182.796 119.792 181.242C119.792 179.492 118.434 178.512 117.076 178.484L119.54 176.328V174.928H113.24V176.398H117.37L114.864 178.638L115.634 179.884ZM122.548 179.464C122.548 178.316 122.744 177.434 123.192 176.874C123.5 176.468 123.934 176.202 124.592 176.202C125.25 176.202 125.67 176.468 125.992 176.874C126.426 177.434 126.622 178.316 126.622 179.464C126.622 180.612 126.426 181.494 125.992 182.054C125.67 182.46 125.25 182.726 124.592 182.726C123.934 182.726 123.5 182.46 123.192 182.054C122.758 181.494 122.548 180.612 122.548 179.464ZM120.882 179.464C120.882 180.668 121.078 181.802 121.694 182.726C122.282 183.608 123.234 184.21 124.592 184.21C125.95 184.21 126.888 183.608 127.476 182.726C128.092 181.802 128.288 180.668 128.288 179.464C128.288 178.26 128.092 177.126 127.476 176.202C126.888 175.32 125.95 174.718 124.592 174.718C123.234 174.718 122.282 175.32 121.694 176.202C121.078 177.126 120.882 178.26 120.882 179.464Z" fill="#C9B6BE"/>
<rect x="12" y="66" width="69" height="19" rx="9.5" fill="#ECB4CC"/>
<g clip-path="url(#clip0)">
<path fill-rule="evenodd" clip-rule="evenodd" d="M180.675 295.31L168.307 251.652L208.878 274.376L190.392 279.612L189.368 280.268L180.675 295.31Z" fill="white"/>
<path fill-rule="evenodd" clip-rule="evenodd" d="M205.96 290.133L197.318 297.102L175.992 270.488L184.841 263.408L205.96 290.133Z" fill="white"/>
<path fill-rule="evenodd" clip-rule="evenodd" d="M201.8 289.307L197.37 292.841L183.225 275.133L187.645 271.599L201.8 289.307Z" fill="black"/>
<path fill-rule="evenodd" clip-rule="evenodd" d="M172.892 257.442L181.532 287.941L187.413 277.836L188.472 277.126L201.47 273.444L172.892 257.442Z" fill="black"/>
</g>
<defs>
<filter id="filter0_d" x="43" y="238" width="137" height="34.5" filterUnits="userSpaceOnUse" color-interpolation-filters="sRGB">
<feFlood flood-opacity="0" result="BackgroundImageFix"/>
<feColorMatrix in="SourceAlpha" type="matrix" values="0 0 0 0 0 0 0 0 0 0 0 0 0 0 0 0 0 0 127 0"/>
<feOffset dy="1.5"/>
<feGaussianBlur stdDeviation="0.5"/>
<feColorMatrix type="matrix" values="0 0 0 0 0 0 0 0 0 0 0 0 0 0 0 0 0 0 0.05 0"/>
<feBlend mode="normal" in2="BackgroundImageFix" result="effect1_dropShadow"/>
<feBlend mode="normal" in="SourceGraphic" in2="effect1_dropShadow" result="shape"/>
</filter>
<clipPath id="clip0">
<rect width="34" height="53.8333" fill="white" transform="translate(168.307 251.652) rotate(-15.8164)"/>
</clipPath>
</defs>
</svg>
