<svg xmlns="http://www.w3.org/2000/svg" viewBox="0 0 992 558"><g fill="none" transform="translate(-4)"><path fill="#062840" d="M84 0h832c11.046 0 20 8.954 20 20v550c0 11.046-8.954 20-20 20H84c-11.046 0-20-8.954-20-20V20C64 8.954 72.954 0 84 0z"></path><circle cx="500" cy="16" r="4" fill="#000"></circle><path fill="#CFDCE6" d="M4 518h992v15c0 13.807-11.193 25-25 25H29c-13.807 0-25-11.193-25-25v-15z"></path><path fill="#0F334D" d="M435 518h130c0 7.732-6.268 14-14 14H449c-7.732 0-14-6.268-14-14z" opacity=".2"></path><path fill="#FFF" d="M84 30h832v468H84z">
</path>
</g>
</svg>
