<svg id="Layer_1" data-name="Layer 1" xmlns="http://www.w3.org/2000/svg" viewBox="0 0 546 97.2"><defs><style>.cls-1{fill:#9759e4;fill-rule:evenodd;}.cls-2,.cls-3{fill:none;stroke-linecap:round;stroke-linejoin:round;stroke-width:1.5px;opacity:0.5;isolation:isolate;}.cls-2{stroke:#6b50c8;}.cls-3{stroke:#9759e4;}.cls-4{fill:#fefefe;}.cls-5{fill:#f9bf36;}.cls-6{fill:#fff;}</style></defs><title>heyagenda</title><path d="M90.68,89.11V24.59a.84.84,0,0,1,.95-.95h12.9a.83.83,0,0,1,1,.95v24H130v-24a.84.84,0,0,1,.95-.95h12.91a.84.84,0,0,1,1,.95V89.11a.84.84,0,0,1-1,1H130.91a.84.84,0,0,1-.95-1V62.25H105.48V89.11a.84.84,0,0,1-1,1H91.63A.84.84,0,0,1,90.68,89.11Z" transform="translate(-5 -12.59)"/><path d="M161.32,87.87a22.28,22.28,0,0,1-8.68-8.73,25.94,25.94,0,0,1-3.13-12.9,25.83,25.83,0,0,1,3.13-12.76,22.59,22.59,0,0,1,8.73-8.83,25.37,25.37,0,0,1,12.71-3.17,25,25,0,0,1,13.71,3.6,22.86,22.86,0,0,1,8.5,9.58,30.19,30.19,0,0,1,2.84,13.1v1.61a.84.84,0,0,1-.95.95H163.74a9.91,9.91,0,0,0,3.51,6.31A10.47,10.47,0,0,0,174.08,79a14.15,14.15,0,0,0,5.79-1,9.78,9.78,0,0,0,3.89-3.46,3.21,3.21,0,0,1,.67-.67,1.39,1.39,0,0,1,.75-.19h12.06a.59.59,0,0,1,.66.67,3,3,0,0,1-.19.94q-2.85,8-8.64,11.86t-15,3.89A25.51,25.51,0,0,1,161.32,87.87Zm23.2-27.51a9.39,9.39,0,0,0-3.7-5.22,11.56,11.56,0,0,0-6.64-1.8,11.22,11.22,0,0,0-6.45,1.8,10.29,10.29,0,0,0-3.89,5.22Z" transform="translate(-5 -12.59)"/><path d="M199.8,107.8a1.71,1.71,0,0,1-1-1.52V95.84c0-.63.28-1,.85-1a4.16,4.16,0,0,1,1.19.29c.53.19.93.35,1.18.47A26,26,0,0,0,205,96.79a8.83,8.83,0,0,0,2.57.38,5.87,5.87,0,0,0,4.69-2c1.17-1.36,2.3-3.78,3.37-7.26L197.71,44.32a3.69,3.69,0,0,1-.29-1,.76.76,0,0,1,.86-.86h13.28a1.2,1.2,0,0,1,1.24.95l9.77,27.9,8.06-27.9a1.25,1.25,0,0,1,1.33-.95h12.62c.57,0,.85.26.85.76a4.57,4.57,0,0,1-.28,1.14l-14.8,44.5q-3.71,11.48-8.68,16.23a17.15,17.15,0,0,1-12.29,4.74A19.75,19.75,0,0,1,199.8,107.8Z" transform="translate(-5 -12.59)"/><path d="M237.79,88.54l22.68-63.95a1.3,1.3,0,0,1,1.42-.95H275a1.3,1.3,0,0,1,1.42.95l22.68,64a5.06,5.06,0,0,1,.19.66c0,.57-.38.86-1.14.86h-13a1.14,1.14,0,0,1-.76-.19,2.09,2.09,0,0,1-.38-.76l-4.84-15.18H257.72l-4.84,15.18a2.09,2.09,0,0,1-.38.76,1.14,1.14,0,0,1-.76.19h-13C237.73,90.06,237.41,89.55,237.79,88.54ZM275,60.83l-6.55-20.49-6.55,20.49Z" transform="translate(-5 -12.59)"/><path d="M307.29,105.38a16.63,16.63,0,0,1-6.78-12v-.19c0-.57.32-.86.95-.86h12a1,1,0,0,1,1,1q1.71,4.65,8.16,4.65,4.74,0,7.21-2.89c1.64-1.93,2.47-5,2.47-9.25V84.36a13.27,13.27,0,0,1-5.37,3.94,18.51,18.51,0,0,1-7,1.28,21.36,21.36,0,0,1-11.24-3,20.77,20.77,0,0,1-7.83-8.49A27.07,27.07,0,0,1,298,65.48,27.3,27.3,0,0,1,300.84,53a20.85,20.85,0,0,1,7.64-8.5,20.19,20.19,0,0,1,10.82-3,19.42,19.42,0,0,1,7.35,1.37,15,15,0,0,1,5.65,3.94V43.37a.84.84,0,0,1,.94-.95h12.15a.84.84,0,0,1,.95.95V82.56q0,14.32-6.07,20.78t-17.75,6.45Q313.22,109.79,307.29,105.38Zm22.59-31.55a12.09,12.09,0,0,0,2.8-8.35,11.93,11.93,0,0,0-2.8-8.25,10,10,0,0,0-14.52,0,11.89,11.89,0,0,0-2.8,8.25,12,12,0,0,0,2.8,8.35,10,10,0,0,0,14.52,0Z" transform="translate(-5 -12.59)"/><path d="M362.14,87.87a22.22,22.22,0,0,1-8.68-8.73,25.94,25.94,0,0,1-3.14-12.9,25.84,25.84,0,0,1,3.14-12.76,22.46,22.46,0,0,1,8.73-8.83,25.34,25.34,0,0,1,12.71-3.17,25,25,0,0,1,13.71,3.6,22.9,22.9,0,0,1,8.49,9.58A30.05,30.05,0,0,1,400,67.76v1.61a.84.84,0,0,1-.95.95H364.56a9.91,9.91,0,0,0,3.51,6.31A10.45,10.45,0,0,0,374.9,79a14.22,14.22,0,0,0,5.79-1,9.85,9.85,0,0,0,3.89-3.46,3.21,3.21,0,0,1,.66-.67,1.4,1.4,0,0,1,.76-.19h12.05a.59.59,0,0,1,.67.67,3.31,3.31,0,0,1-.19.94q-2.85,8-8.64,11.86T374.9,91A25.48,25.48,0,0,1,362.14,87.87Zm23.2-27.51a9.39,9.39,0,0,0-3.7-5.22,11.62,11.62,0,0,0-6.65-1.8,11.22,11.22,0,0,0-6.45,1.8,10.29,10.29,0,0,0-3.89,5.22Z" transform="translate(-5 -12.59)"/><path d="M404.31,89.11V43.37a.84.84,0,0,1,.95-.95H417.4a.84.84,0,0,1,1,.95V48a17,17,0,0,1,5.93-4.79,17.5,17.5,0,0,1,7.83-1.75q8,0,12.43,4.45T449,58.65V89.11a.84.84,0,0,1-.95,1H435.91a.84.84,0,0,1-1-1V63c0-3.09-.56-5.36-1.66-6.78a6,6,0,0,0-5.08-2.13A8.5,8.5,0,0,0,421,57.7q-2.65,3.61-2.66,11.48V89.11a.84.84,0,0,1-1,1H405.26A.84.84,0,0,1,404.31,89.11Z" transform="translate(-5 -12.59)"/><path d="M463.14,88a20.6,20.6,0,0,1-7.45-8.64A29.79,29.79,0,0,1,453,66.24a30.22,30.22,0,0,1,2.65-13.09,20.19,20.19,0,0,1,7.45-8.64,19.92,19.92,0,0,1,10.86-3A17.93,17.93,0,0,1,481,42.9,16.5,16.5,0,0,1,487,47.17V24.59a.84.84,0,0,1,.95-.95h12.15a.84.84,0,0,1,.95.95V89.11a.84.84,0,0,1-.95,1H487.9a.84.84,0,0,1-.95-1V85a18.43,18.43,0,0,1-5.83,4.36A16.35,16.35,0,0,1,474,91,19.65,19.65,0,0,1,463.14,88Zm21.54-12.91a13.7,13.7,0,0,0,2.65-8.82,13.7,13.7,0,0,0-2.65-8.82,8.83,8.83,0,0,0-7.31-3.32,8.72,8.72,0,0,0-7.21,3.32,13.7,13.7,0,0,0-2.66,8.82,13.7,13.7,0,0,0,2.66,8.82,8.73,8.73,0,0,0,7.21,3.33A8.84,8.84,0,0,0,484.68,75.06Z" transform="translate(-5 -12.59)"/><path d="M509.54,86.78Q505,82.57,505,75t5.27-11.43q5.26-3.94,14-3.94a46.86,46.86,0,0,1,11,1.42v-.85a7.1,7.1,0,0,0-2-5.32,8.76,8.76,0,0,0-12.57,1.52,1.82,1.82,0,0,1-.72.71,2.84,2.84,0,0,1-1.09.15H507.45c-.45,0-.67-.19-.67-.57l.1-.95a16.44,16.44,0,0,1,6.64-10.2q5.41-4,14-4,10.44,0,15.94,5T549,61.69V80.38a26.25,26.25,0,0,0,.38,5,11.83,11.83,0,0,0,1.42,3.75l.19.47c0,.32-.28.48-.85.48H536.2a.84.84,0,0,1-1-1V84.93a15.51,15.51,0,0,1-5.74,4.41A18.93,18.93,0,0,1,521.4,91Q514.08,91,509.54,86.78Zm22.53-9.63a9.21,9.21,0,0,0,3.18-6.45,40.72,40.72,0,0,0-9.11-1.33,8.69,8.69,0,0,0-5.41,1.47,4.65,4.65,0,0,0-1.9,3.84,4.28,4.28,0,0,0,1.62,3.56,7.28,7.28,0,0,0,4.65,1.28A10.42,10.42,0,0,0,532.07,77.15Z" transform="translate(-5 -12.59)"/><path class="cls-1" d="M36.24,22.27H52.6v7.55a8.06,8.06,0,0,0,5.58,7.8A8.15,8.15,0,0,0,69,30.14V22.27H72a11.8,11.8,0,0,1,11.81,11.8V77.4A11.8,11.8,0,0,1,72,89.2H16.81A11.8,11.8,0,0,1,5,77.4V34.07a11.8,11.8,0,0,1,11.81-11.8h3.06v7.55a8.06,8.06,0,0,0,5.58,7.8,8.16,8.16,0,0,0,10.79-7.48ZM21.36,51.49v4a3.93,3.93,0,0,0,3.94,3.93h4a3.93,3.93,0,0,0,3.93-3.93v-4a3.93,3.93,0,0,0-3.93-3.94h-4A3.93,3.93,0,0,0,21.36,51.49Zm18.81-3.94h4a3.94,3.94,0,0,1,3.94,3.94v4a3.94,3.94,0,0,1-3.94,3.93h-4a3.93,3.93,0,0,1-3.93-3.93v-4A3.93,3.93,0,0,1,40.17,47.55ZM21.36,66.36v4a3.93,3.93,0,0,0,3.94,3.94h4a3.93,3.93,0,0,0,3.93-3.94v-4a3.93,3.93,0,0,0-3.93-3.93h-4A3.93,3.93,0,0,0,21.36,66.36Zm18.81-3.93h4a3.94,3.94,0,0,1,3.94,3.93v4a3.94,3.94,0,0,1-3.94,3.94h-4a3.93,3.93,0,0,1-3.93-3.94v-4A3.93,3.93,0,0,1,40.17,62.43ZM52.6,51.49v4a3.93,3.93,0,0,0,3.93,3.93h4a3.93,3.93,0,0,0,3.94-3.93v-4a3.93,3.93,0,0,0-3.94-3.94h-4A3.93,3.93,0,0,0,52.6,51.49Z" transform="translate(-5 -12.59)"/><path class="cls-2" d="M28.8,29.7V13.34" transform="translate(-5 -12.59)"/><path class="cls-3" d="M60,29.7V13.34" transform="translate(-5 -12.59)"/><path class="cls-4" d="M73.53,89.2a6.12,6.12,0,0,0,1.21-.1,8.24,8.24,0,0,0,2.62-1,14.94,14.94,0,0,0,2.44-1.9,15.82,15.82,0,0,0,2-2.22,12.57,12.57,0,0,0,1.5-2.71,7.89,7.89,0,0,0,.57-3.47,5.73,5.73,0,0,0-.35-1.59c-.07-.21-.18-.41-.26-.62-.4-1.15-.8-2.31-1.22-3.46-.85-2.38-1.73-4.75-2.61-7.12a.89.89,0,0,0-1.4-.38,4.28,4.28,0,0,0-.87.83,3.56,3.56,0,0,0-.76,2,4.28,4.28,0,0,0,.25,1.77c.44,1.2.86,2.41,1.3,3.61a.52.52,0,0,1-.06.5.42.42,0,0,1-.68.09l-.39-.34c-.62-.57-1.2-1.18-1.79-1.78-.42-.44-.83-.9-1.26-1.34L72.48,68.7,70,66.16c-1.21-1.25-2.4-2.51-3.62-3.75a3.35,3.35,0,0,0-1.06-.73,1.7,1.7,0,0,0-1-.13,1.61,1.61,0,0,0-.92.63,1.42,1.42,0,0,0-.29,1.16,2.24,2.24,0,0,0,.55,1.07c.46.51.92,1,1.39,1.52l2.8,3,1.9,2a.53.53,0,0,1,.13.23.36.36,0,0,1-.14.38.3.3,0,0,1-.37,0,1.26,1.26,0,0,1-.2-.2l-2.5-2.67-2.11-2.24L62.1,63.89a11.1,11.1,0,0,0-.82-.86,2,2,0,0,0-1.76-.5,1.6,1.6,0,0,0-1.25,1.63,2.09,2.09,0,0,0,.47,1.27c.27.33.57.63.85.94l1.77,1.92,3.28,3.55,1.82,2a.6.6,0,0,1,.14.21.31.31,0,0,1-.09.37.3.3,0,0,1-.35,0,1.07,1.07,0,0,1-.16-.14l-1.87-2-2.73-2.9-2-2.1a2.88,2.88,0,0,0-.82-.61,1.53,1.53,0,0,0-1-.13,1.79,1.79,0,0,0-1.24,1.58,1.88,1.88,0,0,0,.51,1.39l1.87,2,2.44,2.63,2.37,2.56.28.3a.39.39,0,0,1,.08.43.36.36,0,0,1-.37.2.47.47,0,0,1-.28-.18l-2-2.1c-.86-.93-1.72-1.86-2.61-2.76a1.77,1.77,0,0,0-.62-.43,1.36,1.36,0,0,0-.84-.11,1.61,1.61,0,0,0-.88.53A1.55,1.55,0,0,0,56,74.39a3.11,3.11,0,0,0,.64,1l1.66,1.8,3.19,3.44,1.07,1.14c.74.79,1.46,1.59,2.24,2.32s1.78,1.66,2.71,2.43A15.88,15.88,0,0,0,70,88.26,7.24,7.24,0,0,0,73.53,89.2ZM62.82,85.79H63a.47.47,0,0,0,.45-.51.48.48,0,0,0-.48-.47h-.25a4.65,4.65,0,0,1-2.1-.68,8,8,0,0,1-2-1.75,8.75,8.75,0,0,1-.81-1.11.44.44,0,0,0-.48-.22.45.45,0,0,0-.39.35.45.45,0,0,0,.07.42,10.28,10.28,0,0,0,2.49,2.76A5.79,5.79,0,0,0,62.82,85.79Zm11.47-20a.49.49,0,0,0,.45-.67,11.67,11.67,0,0,0-1.31-2.56,7,7,0,0,0-2-1.92,4.73,4.73,0,0,0-1.73-.73.47.47,0,0,0-.55.38.49.49,0,0,0,.37.59l.12,0A4.78,4.78,0,0,1,71.63,62a7.2,7.2,0,0,1,1.44,1.85,9.67,9.67,0,0,1,.76,1.63A.47.47,0,0,0,74.29,65.82ZM61.86,88.35H62a.49.49,0,0,0,.49-.5.48.48,0,0,0-.49-.49,5.56,5.56,0,0,1-1.5-.26,5.84,5.84,0,0,1-1.93-1A9.94,9.94,0,0,1,57,84.49a.47.47,0,0,0-.54-.16.49.49,0,0,0-.32.48.64.64,0,0,0,.15.37,10.54,10.54,0,0,0,1,1.1,7.92,7.92,0,0,0,2.56,1.65A6.55,6.55,0,0,0,61.86,88.35Zm15-24.27s0,0,0-.09a10.43,10.43,0,0,0-.44-1.75,7.47,7.47,0,0,0-1.77-2.93,5.66,5.66,0,0,0-1.25-1,.47.47,0,0,0-.66.19.49.49,0,0,0,.2.67l.11.07a5.52,5.52,0,0,1,1.8,1.89,8.46,8.46,0,0,1,1.06,3,.48.48,0,0,0,.5.42A.49.49,0,0,0,76.81,64.08Z" transform="translate(-5 -12.59)"/><path class="cls-5" d="M73.53,89.2A7.24,7.24,0,0,1,70,88.26a15.88,15.88,0,0,1-2.49-1.74c-.93-.77-1.83-1.59-2.71-2.43s-1.5-1.53-2.24-2.32l-1.07-1.14-3.19-3.44-1.66-1.8a3.11,3.11,0,0,1-.64-1,1.55,1.55,0,0,1,.35-1.76,1.61,1.61,0,0,1,.88-.53,1.36,1.36,0,0,1,.84.11,1.77,1.77,0,0,1,.62.43c.89.9,1.75,1.83,2.61,2.76l2,2.1a.47.47,0,0,0,.28.18.36.36,0,0,0,.37-.2.39.39,0,0,0-.08-.43l-.28-.3-2.37-2.56-2.44-2.63-1.87-2a1.88,1.88,0,0,1-.51-1.39,1.79,1.79,0,0,1,1.24-1.58,1.53,1.53,0,0,1,1,.13,2.88,2.88,0,0,1,.82.61l2,2.1,2.73,2.9,1.87,2a1.07,1.07,0,0,0,.16.14.3.3,0,0,0,.35,0,.31.31,0,0,0,.09-.37.6.6,0,0,0-.14-.21l-1.82-2-3.28-3.55-1.77-1.92c-.28-.31-.58-.61-.85-.94a2.09,2.09,0,0,1-.47-1.27,1.6,1.6,0,0,1,1.25-1.63,2,2,0,0,1,1.76.5,11.1,11.1,0,0,1,.82.86l2.45,2.62,2.11,2.24,2.5,2.67a1.26,1.26,0,0,0,.2.2.3.3,0,0,0,.37,0,.36.36,0,0,0,.14-.38.53.53,0,0,0-.13-.23l-1.9-2-2.8-3c-.47-.5-.93-1-1.39-1.52a2.24,2.24,0,0,1-.55-1.07,1.42,1.42,0,0,1,.29-1.16,1.61,1.61,0,0,1,.92-.63,1.7,1.7,0,0,1,1,.13,3.35,3.35,0,0,1,1.06.73c1.22,1.24,2.41,2.5,3.62,3.75l2.45,2.54L73.72,70c.43.44.84.9,1.26,1.34.59.6,1.17,1.21,1.79,1.78l.39.34a.42.42,0,0,0,.68-.09.52.52,0,0,0,.06-.5c-.44-1.2-.86-2.41-1.3-3.61a4.28,4.28,0,0,1-.25-1.77,3.56,3.56,0,0,1,.76-2,4.28,4.28,0,0,1,.87-.83.89.89,0,0,1,1.4.38c.88,2.37,1.76,4.74,2.61,7.12.42,1.15.82,2.31,1.22,3.46.08.21.19.41.26.62a5.73,5.73,0,0,1,.35,1.59,7.89,7.89,0,0,1-.57,3.47A12.57,12.57,0,0,1,81.75,84a15.82,15.82,0,0,1-2,2.22,14.94,14.94,0,0,1-2.44,1.9,8.24,8.24,0,0,1-2.62,1A6.12,6.12,0,0,1,73.53,89.2Z" transform="translate(-5 -12.59)"/><path class="cls-6" d="M62.82,85.79a5.79,5.79,0,0,1-3.27-1.22,10.28,10.28,0,0,1-2.49-2.76.45.45,0,0,1-.07-.42.45.45,0,0,1,.39-.35.44.44,0,0,1,.48.22,8.75,8.75,0,0,0,.81,1.11,8,8,0,0,0,2,1.75,4.65,4.65,0,0,0,2.1.68H63a.48.48,0,0,1,.48.47.47.47,0,0,1-.45.51Z" transform="translate(-5 -12.59)"/><path class="cls-6" d="M74.29,65.82a.47.47,0,0,1-.46-.33,9.67,9.67,0,0,0-.76-1.63A7.2,7.2,0,0,0,71.63,62a4.78,4.78,0,0,0-1.94-1.08l-.12,0a.49.49,0,0,1-.37-.59.47.47,0,0,1,.55-.38,4.73,4.73,0,0,1,1.73.73,7,7,0,0,1,2,1.92,11.67,11.67,0,0,1,1.31,2.56A.49.49,0,0,1,74.29,65.82Z" transform="translate(-5 -12.59)"/><path class="cls-6" d="M61.86,88.35a6.55,6.55,0,0,1-2-.42,7.92,7.92,0,0,1-2.56-1.65,10.54,10.54,0,0,1-1-1.1.64.64,0,0,1-.15-.37.49.49,0,0,1,.32-.48.47.47,0,0,1,.54.16,9.94,9.94,0,0,0,1.54,1.57,5.84,5.84,0,0,0,1.93,1,5.56,5.56,0,0,0,1.5.26.48.48,0,0,1,.49.49.49.49,0,0,1-.49.5Z" transform="translate(-5 -12.59)"/><path class="cls-6" d="M76.81,64.08a.49.49,0,0,1-.46.51.48.48,0,0,1-.5-.42,8.46,8.46,0,0,0-1.06-3A5.52,5.52,0,0,0,73,59.27l-.11-.07a.49.49,0,0,1-.2-.67.47.47,0,0,1,.66-.19,5.66,5.66,0,0,1,1.25,1,7.47,7.47,0,0,1,1.77,2.93A10.43,10.43,0,0,1,76.8,64S76.81,64.06,76.81,64.08Z" transform="translate(-5 -12.59)"/></svg>
