<svg fill="none" height="54" viewBox="0 0 54 54" width="54" xmlns="http://www.w3.org/2000/svg"><g stroke="#fff" stroke-linecap="round" stroke-linejoin="round" stroke-width="2.5"><path d="m27 43.0312 5.0625-8.4374"/><path d="m37.125 43.0312 5.0625-8.4374"/><path d="m1.68749 31.581c-.03208-1.5074.24066-3.0058.80184-4.4053.56119-1.3994 1.39926-2.6711 2.46394-3.7387s2.33404-1.9092 3.73194-2.4743c1.39789-.565 2.89549-.8419 4.40299-.814 1.1902-2.7061 3.1357-5.0116 5.6032-6.6398 2.4676-1.6283 5.3524-2.5103 8.3086-2.5401 4.0014.0753 7.8223 1.6791 10.6786 4.4823 2.8564 2.8033 4.5317 6.5934 4.6821 10.5926 1.227-.2407 2.4924-.2026 3.7027.1113s2.3346.8957 3.29 1.7024c.9553.8067 1.7171 1.8177 2.2293 2.9584.5122 1.1406.7616 2.3817.7298 3.6317 0 8.7255-8.8043 8.5883-8.8043 8.5883h-31.9162c-2.75828-.3859-5.28272-1.7598-7.10437-3.8666-1.82165-2.1067-2.81664-4.8031-2.80014-7.5882z"/></g></svg>