<svg fill="none" height="54" viewBox="0 0 54 54" width="54" xmlns="http://www.w3.org/2000/svg"><g stroke="#fff" stroke-linecap="round" stroke-linejoin="round" stroke-width="2.5"><path d="m48.9375 1.6875h-43.875c-1.86396 0-3.375 1.51104-3.375 3.375v43.875c0 1.864 1.51104 3.375 3.375 3.375h43.875c1.864 0 3.375-1.511 3.375-3.375v-43.875c0-1.86396-1.511-3.375-3.375-3.375z"/><path d="m35.4375 25.3462v-13.5"/><path d="m35.4375 42.2212v-6.75"/><path clip-rule="evenodd" d="m40.5 30.4087c0 1.0013-.2969 1.98-.8532 2.8126-.5563.8325-1.3469 1.4814-2.272 1.8645-.925.3832-1.9429.4835-2.9249.2881-.9821-.1953-1.8841-.6775-2.5921-1.3855s-1.1902-1.61-1.3855-2.5921c-.1954-.982-.0951-1.9999.2881-2.9249.3831-.9251 1.032-1.7157 1.8645-2.272.8326-.5563 1.8113-.8532 2.8126-.8532 1.3427 0 2.6303.5334 3.5797 1.4828s1.4828 2.237 1.4828 3.5797z" fill-rule="evenodd"/><path d="m18.5625 21.9712v20.25"/><path clip-rule="evenodd" d="m23.625 16.9087c0-1.0013-.2969-1.9801-.8532-2.8126s-1.3469-1.4814-2.272-1.8645c-.925-.3832-1.9429-.4835-2.9249-.2881-.9821.1953-1.8841.6775-2.5921 1.3855s-1.1902 1.61-1.3855 2.592c-.1954.9821-.0951 2 .2881 2.925.3831.9251 1.032 1.7157 1.8645 2.272.8326.5563 1.8113.8532 2.8126.8532 1.3427 0 2.6303-.5334 3.5797-1.4828s1.4828-2.237 1.4828-3.5797z" fill-rule="evenodd"/></g></svg>