<svg fill="none" height="34" viewBox="0 0 34 34" width="34" xmlns="http://www.w3.org/2000/svg" xmlns:xlink="http://www.w3.org/1999/xlink"><clipPath id="a"><path d="m0 0h34v34h-34z"/></clipPath><g clip-path="url(#a)" stroke-linecap="round" stroke-linejoin="round" stroke-width="2.25"><path d="m1.0625 21.25v7.4375l7.4375 4.25 5.3125-3.0359" stroke="#f042aa"/><path d="m8.5 32.9375v-7.4375" stroke="#f042aa"/><g stroke="#6267f6"><path d="m25.5 17-7.4375 4.25 7.4375 4.25 7.4375-4.25z"/><path d="m18.0625 21.25v7.4375l7.4375 4.25 7.4375-4.25v-7.4375"/><path d="m25.5 25.5v7.4375"/></g><g stroke="#b929ec"><path d="m17 1.0625-7.4375 4.25 7.4375 4.25 7.4375-4.25z"/><path d="m9.5625 5.3125v7.4375l7.4375 4.25 7.4375-4.25v-7.4375"/><path d="m17 9.5625v7.4375"/></g><path d="m13.8125 20.0359-5.3125-3.0359-7.4375 4.25 7.4375 4.25 4.25-2.4282" stroke="#f042aa"/></g></svg>