<svg fill="none" height="34" viewBox="0 0 34 34" width="34" xmlns="http://www.w3.org/2000/svg" xmlns:xlink="http://www.w3.org/1999/xlink"><clipPath id="a"><path d="m0 0h34v34h-34z"/></clipPath><g clip-path="url(#a)" stroke-linecap="round" stroke-linejoin="round" stroke-width="2.25"><path d="m30.8125 30.8125c0 .5636-.2239 1.1041-.6224 1.5026s-.939.6224-1.5026.6224h-23.375c-.56359 0-1.10409-.2239-1.5026-.6224-.39852-.3985-.6224-.939-.6224-1.5026v-27.625c0-.56359.22388-1.10409.6224-1.5026.39851-.39852.93901-.6224 1.5026-.6224h15.0577c.5632.00012 1.1034.22381 1.5017.62192l8.3187 8.31868c.3981.3983.6218.9385.6219 1.5017z" stroke="#f042aa"/><path d="m30.8125 11.6875h-8.5c-.5636 0-1.1041-.2239-1.5026-.6224s-.6224-.939-.6224-1.5026v-8.5" stroke="#f042aa"/><path d="m14 10c0-.53043-.2107-1.03914-.5858-1.41421-.3751-.37508-.8838-.58579-1.4142-.58579s-1.0391.21071-1.4142.58579c-.3751.37507-.5858.88378-.5858 1.41421v6c0 .5304-.21071 1.0391-.58579 1.4142-.37507.3751-.88378.5858-1.41421.5858h6m-6-4h6" stroke="#6267f6"/><g stroke="#b929ec"><path d="m17 21.25h8.5"/><path d="m9.5625 27.625h15.9375"/></g></g></svg>