<svg fill="none" height="34" viewBox="0 0 34 34" width="34" xmlns="http://www.w3.org/2000/svg" xmlns:xlink="http://www.w3.org/1999/xlink"><clipPath id="a"><path d="m0 0h34v34h-34z"/></clipPath><g clip-path="url(#a)" stroke-linecap="round" stroke-linejoin="round" stroke-width="2.25"><path d="m14.875 17.7452c.0008.3672-.1443.7197-.4033.98s-.6107.4072-.9779.4083h-11.05004c-.18188-.0004-.36191-.0366-.52978-.1066-.16788-.07-.32031-.1724-.44859-.3013s-.22989-.2819-.29902-.4501c-.06913-.1683-.10442-.3485-.10386-.5303v-15.28588c-.00038-.18195.03509-.36219.10438-.53043.06928-.16824.17102-.32118.29942-.4501.12839-.12892.28092-.23129.44887-.30126s.34805-.10617.52999-.10655l11.05003.01842c.3669.0015.7183.14852.977.40881.2587.26028.4036.61256.4028.97952z" stroke="#f042aa"/><path d="m32.9318 9.27069c-.0026.36383-.1496.71174-.4085.96731-.259.2555-.6089.3978-.9727.3955h-11.05c-.1802.0013-.3589-.0329-.5259-.1007s-.3189-.1678-.4472-.2944-.2304-.27719-.3004-.44324c-.07-.16604-.1067-.34426-.1078-.52447v-6.81842c.0023-.36346.1487-.71115.4072-.96669.2584-.25555.6078-.39803.9712-.39614l11.05-.01842c.3642-.00264.7146.13942.9741.39496.2596.25554.407.60367.41.96787z" stroke="#b929ec"/><path d="m14.875 31.5789c-.0011.1807-.0378.3593-.108.5258-.0701.1665-.1724.3175-.3009.4444-.1285.127-.2808.2274-.4481.2955s-.3464.1025-.5271.1014l-11.04998-.0184c-.36384.0015-.71339-.1415-.97185-.3976-.25846-.256-.4047-.6042-.40657-.9681v-6.8127c.00093-.1804.0374-.3589.10734-.5251.06993-.1663.17195-.3172.30023-.444.12828-.1269.2803-.2272.44737-.2952.16707-.0681.34592-.1025.52631-.1014h11.04995c.3643-.0019.7143.1409.9733.397s.4058.6045.408.9687z" stroke="#b929ec"/><path d="m20.502 32.946c-.1821-.0004-.3623-.0366-.5303-.1067-.1681-.0701-.3207-.1726-.4491-.3016-.1284-.1291-.2301-.2822-.2993-.4506s-.1045-.3488-.104-.5309v-15.283c-.0005-.1819.0348-.3622.1039-.5305s.1707-.3214.2989-.4504c.1283-.1291.2807-.2316.4486-.3017.1679-.0702.3479-.1066.5299-.1071h11.05c.1819.0005.362.0369.5299.1071.1679.0701.3203.1726.4485.3017.1283.129.2299.2821.299.4504s.1044.3486.1038.5305v15.2646c.0008.3671-.144.7195-.4027.9801-.2586.2605-.61.4078-.9771.4097z" stroke="#6268f7"/></g></svg>