<svg fill="none" height="34" viewBox="0 0 34 34" width="34" xmlns="http://www.w3.org/2000/svg" xmlns:xlink="http://www.w3.org/1999/xlink"><clipPath id="a"><path d="m0 0h34v34h-34z"/></clipPath><g clip-path="url(#a)" stroke-linecap="round" stroke-linejoin="round" stroke-width="2.25"><path d="m30.8125 5.3125h-27.625c-1.17361 0-2.125.95139-2.125 2.125v19.125c0 1.1736.95139 2.125 2.125 2.125h27.625c1.1736 0 2.125-.9514 2.125-2.125v-19.125c0-1.17361-.9514-2.125-2.125-2.125z" stroke="#f042aa"/><path d="m17 20.1577c.6646.8992 1.5961 1.5658 2.6616 1.9048 1.0656.339 2.2109.3331 3.2729-.0168s1.9866-1.0259 2.6419-1.9319c.6554-.906 1.0083-1.9956 1.0083-3.1138s-.3529-2.2078-1.0083-3.1138c-.6553-.906-1.5799-1.582-2.6419-1.9319s-2.2073-.3558-3.2729-.0168c-1.0655.339-1.997 1.0056-2.6616 1.9047" stroke="#b929ec"/><path d="m12.75 22.3125c2.934 0 5.3125-2.3785 5.3125-5.3125s-2.3785-5.3125-5.3125-5.3125c-2.93401 0-5.3125 2.3785-5.3125 5.3125s2.37849 5.3125 5.3125 5.3125z" stroke="#6267f6"/></g></svg>