<svg fill="none" height="34" viewBox="0 0 34 34" width="34" xmlns="http://www.w3.org/2000/svg" xmlns:xlink="http://www.w3.org/1999/xlink"><clipPath id="a"><path d="m0 0h34v34h-34z"/></clipPath><g clip-path="url(#a)" stroke-linecap="round" stroke-linejoin="round" stroke-width="2.25"><path d="m27.625 18.2467v-15.0592c0-.56359-.2239-1.10409-.6224-1.5026-.3985-.39852-.939-.6224-1.5026-.6224h-17c-.56359 0-1.10409.22388-1.5026.6224-.39852.39851-.6224.93901-.6224 1.5026v15.0592" stroke="#f042aa"/><path d="m30.1523 16.2421c.1565-.1241.3447-.2016.5432-.2236.1984-.0219.3991.0124.5789.0992s.3315.2226.4378.3916c.1062.1691.1626.3647.1628.5644v13.7416c0 .5636-.2239 1.1041-.6224 1.5026s-.939.6224-1.5026.6224h-25.5c-.56359 0-1.10409-.2239-1.5026-.6224-.39852-.3985-.6224-.939-.6224-1.5026v-13.7416c.00018-.1997.05661-.3953.16284-.5644.10623-.169.25794-.3048.43776-.3916s.38046-.1211.57891-.0992c.19846.022.3867.0995.54316.2236l10.52723 8.3498c.7487.588 1.6731.9076 2.6251.9076s1.8764-.3196 2.6251-.9076z" stroke="#f042aa"/><g stroke="#b929ec"><path d="m22.3947 22.3947 4.1678 4.1678"/><path d="m11.6053 22.3947-4.1678 4.1678"/><path d="m10.625 6.375h2.125"/><path d="m10.625 10.625h2.125"/><path d="m10.625 14.875h2.125"/></g><path d="m23 7.8c0-.47739-.1756-.93523-.4882-1.27279-.3125-.33757-.7364-.52721-1.1785-.52721-.442 0-.8659.18964-1.1785.52721-.3125.33756-.4881.7954-.4881 1.27279v5.4c0 .4774-.1756.9352-.4882 1.2728-.3125.3376-.7365.5272-1.1785.5272h5m-5-3.6h5" stroke="#6267f6"/></g></svg>