<svg fill="none" height="34" viewBox="0 0 34 34" width="34" xmlns="http://www.w3.org/2000/svg" xmlns:xlink="http://www.w3.org/1999/xlink"><clipPath id="a"><path d="m0 0h34v34h-34z"/></clipPath><g clip-path="url(#a)"><path d="m22.3125 4.25h6.375c.5636 0 1.1041.22388 1.5026.6224.3985.39851.6224.93901.6224 1.5026v21.25c0 .5636-.2239 1.1041-.6224 1.5026s-.939.6224-1.5026.6224h-6.375" stroke="#6267f6" stroke-linecap="round" stroke-linejoin="round" stroke-width="2.25"/><path d="m16.8498 32.9318-12.74997-1.8218c-.25321-.0359-.48496-.162-.6526-.3551-.16763-.1932-.25986-.4404-.25973-.6961v-24.78175c-.0002-.24331.08312-.47932.23602-.66859.15291-.18926.36614-.32031.60406-.37124l12.75002-3.14642c.155-.03317.3154-.03126.4695.0056.1542.03686.2981.10773.4213.20743s.2225.22569.2907.36876c.0682.14306.1035.29956.1034.45804v29.74997c-.0001.1522-.0329.3026-.0961.441-.0633.1384-.1555.2616-.2705.3612-.1149.0997-.25.1735-.396.2164-.1459.043-.2994.0541-.4501.0326z" stroke="#f042aa" stroke-linecap="round" stroke-linejoin="round" stroke-width="2.25"/><circle cx="13" cy="17" fill="#b929ec" r="2"/></g></svg>