<svg fill="none" height="54" viewBox="0 0 54 54" width="54" xmlns="http://www.w3.org/2000/svg"><g stroke="#fff" stroke-linecap="round" stroke-linejoin="round" stroke-width="2.5"><path d="m16.0313 17.7188c-.1669 0-.3301.0494-.4688.1422-.1388.0927-.2469.2244-.3108.3786-.0638.1542-.0805.3238-.048.4875.0326.1637.1129.314.2309.432s.2684.1984.432.2309c.1637.0326.3334.0159.4875-.048.1542-.0638.286-.172.3787-.3107.0927-.1388.1422-.3019.1422-.4688.0003-.1109-.0213-.2207-.0636-.3232s-.1045-.1957-.1829-.2741-.1715-.1405-.274-.1828-.2124-.0639-.3232-.0636z"/><path d="m24.4687 17.7188c-.1668 0-.33.0494-.4687.1422-.1388.0927-.2469.2244-.3108.3786-.0638.1542-.0805.3238-.048.4875.0326.1637.1129.314.2309.432s.2684.1984.432.2309c.1637.0326.3334.0159.4875-.048.1542-.0638.286-.172.3787-.3107.0927-.1388.1422-.3019.1422-.4688.0003-.1109-.0213-.2207-.0636-.3232s-.1045-.1957-.1829-.2741-.1715-.1405-.274-.1828-.2124-.0639-.3233-.0636z"/><path d="m25.3125 25.3125h-15.1875c-.44755 0-.87678-.1778-1.19324-.4943-.31647-.3164-.49426-.7456-.49426-1.1932v-10.125c0-.4476.17779-.8768.49426-1.1932.31646-.3165.74569-.4943 1.19324-.4943h15.1875"/><path d="m30.375 42.1875c.1921 3.6175 1.3582 7.1158 3.375 10.125h-13.5c2.0168-3.0092 3.1829-6.5075 3.375-10.125"/><path d="m15.1875 52.3125h23.625"/><path d="m1.6875 35.4375h50.625"/><path d="m52.3125 35.4375v3.375c0 .8951-.3556 1.7535-.9885 2.3865-.633.6329-1.4914.9885-2.3865.9885h-43.875c-.89511 0-1.75355-.3556-2.38649-.9885-.63293-.633-.98851-1.4914-.98851-2.3865v-33.75c0-.89511.35558-1.75355.98851-2.38649.63294-.63293 1.49138-.98851 2.38649-.98851h23.625"/><path d="m48.9375 11.8125h-13.5c-1.864 0-3.375 1.511-3.375 3.375v10.125c0 1.864 1.511 3.375 3.375 3.375h13.5c1.864 0 3.375-1.511 3.375-3.375v-10.125c0-1.864-1.511-3.375-3.375-3.375z"/><path d="m35.4375 11.8125v-3.375c0-1.79021.7112-3.5071 1.977-4.77297 1.2659-1.26587 2.9828-1.97703 4.773-1.97703s3.5071.71116 4.773 1.97703c1.2658 1.26587 1.977 2.98276 1.977 4.77297v3.375"/><path d="m42.1875 19.4063c-.1669 0-.33.0494-.4688.1422-.1387.0927-.2469.2244-.3107.3786-.0639.1542-.0806.3238-.048.4875.0325.1637.1129.314.2309.432s.2683.1984.432.2309c.1637.0326.3333.0159.4875-.048.1542-.0638.2859-.172.3787-.3107.0927-.1388.1422-.3019.1422-.4688.0002-.1109-.0214-.2207-.0637-.3232s-.1044-.1957-.1828-.2741-.1716-.1405-.2741-.1828-.2123-.0639-.3232-.0636z"/></g></svg>