<svg width="54" height="54" viewBox="0 0 54 54" fill="none" xmlns="http://www.w3.org/2000/svg">
<path d="M8.4375 20.25C8.4375 15.3269 10.3932 10.6055 13.8743 7.12433C17.3555 3.64319 22.0769 1.6875 27 1.6875C31.9231 1.6875 36.6445 3.64319 40.1257 7.12433C43.6068 10.6055 45.5625 15.3269 45.5625 20.25M8.4375 20.25C6.64729 20.25 4.9304 20.9612 3.66453 22.227C2.39866 23.4929 1.6875 25.2098 1.6875 27V33.75C1.6875 35.5402 2.39866 37.2571 3.66453 38.523C4.9304 39.7888 6.64729 40.5 8.4375 40.5H10.125C10.5726 40.5 11.0018 40.3222 11.3182 40.0057C11.6347 39.6893 11.8125 39.2601 11.8125 38.8125V21.9375C11.8125 21.4899 11.6347 21.0607 11.3182 20.7443C11.0018 20.4278 10.5726 20.25 10.125 20.25H8.4375ZM45.5625 20.25H43.875C43.4274 20.25 42.9982 20.4278 42.6818 20.7443C42.3653 21.0607 42.1875 21.4899 42.1875 21.9375V38.8125C42.1875 39.2601 42.3653 39.6893 42.6818 40.0057C42.9982 40.3222 43.4274 40.5 43.875 40.5H45.5625M45.5625 20.25C47.3527 20.25 49.0696 20.9612 50.3355 22.227C51.6013 23.4929 52.3125 25.2098 52.3125 27V33.75C52.3125 35.5402 51.6013 37.2571 50.3355 38.523C49.0696 39.7888 47.3527 40.5 45.5625 40.5M33.75 48.9375H38.8125C40.6027 48.9375 42.3196 48.2263 43.5855 46.9605C44.8513 45.6946 45.5625 43.9777 45.5625 42.1875V40.5M33.75 48.9375C33.75 48.0424 33.3944 47.184 32.7615 46.551C32.1286 45.9181 31.2701 45.5625 30.375 45.5625H27C26.1049 45.5625 25.2464 45.9181 24.6135 46.551C23.9806 47.184 23.625 48.0424 23.625 48.9375C23.625 49.8326 23.9806 50.691 24.6135 51.324C25.2464 51.9569 26.1049 52.3125 27 52.3125H30.375C31.2701 52.3125 32.1286 51.9569 32.7615 51.324C33.3944 50.691 33.75 49.8326 33.75 48.9375ZM20.25 34.7445C22.0957 36.4264 24.5029 37.3587 27 37.3587C29.4971 37.3587 31.9043 36.4264 33.75 34.7445M20.25 22.4662V25.4182M33.75 22.4662V25.4182" stroke="white" stroke-width="2.5" stroke-linecap="round" stroke-linejoin="round"/>
</svg>
